<mxfile host="app.diagrams.net" modified="2022-10-25T08:55:19.888Z" agent="5.0 (Macintosh; Intel Mac OS X 10_15_7) AppleWebKit/537.36 (KHTML, like Gecko) Chrome/106.0.0.0 Safari/537.36" etag="RQdlyT_AA7Tl6rONtoMu" version="20.5.1" type="github" pages="3">
  <diagram id="h-4WngNa152txcS0dv_d" name="Page-1">
    <mxGraphModel dx="1426" dy="794" grid="1" gridSize="10" guides="1" tooltips="1" connect="1" arrows="1" fold="1" page="1" pageScale="1" pageWidth="827" pageHeight="1169" math="0" shadow="0">
      <root>
        <mxCell id="0" />
        <mxCell id="1" parent="0" />
        <mxCell id="2ljXg-3jKoq3chsFm4-i-61" style="edgeStyle=orthogonalEdgeStyle;rounded=0;orthogonalLoop=1;jettySize=auto;html=1;entryX=0;entryY=0.5;entryDx=0;entryDy=0;fontSize=13;" parent="1" source="2ljXg-3jKoq3chsFm4-i-27" target="2ljXg-3jKoq3chsFm4-i-12" edge="1">
          <mxGeometry relative="1" as="geometry">
            <Array as="points">
              <mxPoint x="640" y="443" />
              <mxPoint x="640" y="530" />
            </Array>
          </mxGeometry>
        </mxCell>
        <mxCell id="2ljXg-3jKoq3chsFm4-i-72" value="灰度请求: &lt;br&gt;Cookie中有灰度标记" style="edgeLabel;html=1;align=center;verticalAlign=middle;resizable=0;points=[];fontSize=13;" parent="2ljXg-3jKoq3chsFm4-i-61" vertex="1" connectable="0">
          <mxGeometry x="0.0089" relative="1" as="geometry">
            <mxPoint y="13" as="offset" />
          </mxGeometry>
        </mxCell>
        <mxCell id="2ljXg-3jKoq3chsFm4-i-27" value="" style="rounded=1;whiteSpace=wrap;html=1;arcSize=2;" parent="1" vertex="1">
          <mxGeometry x="190" y="325" width="360" height="235" as="geometry" />
        </mxCell>
        <mxCell id="2ljXg-3jKoq3chsFm4-i-9" value="config-server" style="rounded=1;whiteSpace=wrap;html=1;" parent="1" vertex="1">
          <mxGeometry x="430" y="190" width="120" height="60" as="geometry" />
        </mxCell>
        <mxCell id="2ljXg-3jKoq3chsFm4-i-74" style="edgeStyle=orthogonalEdgeStyle;rounded=0;orthogonalLoop=1;jettySize=auto;html=1;entryX=0;entryY=0.5;entryDx=0;entryDy=0;fontSize=13;" parent="1" source="2ljXg-3jKoq3chsFm4-i-10" target="2ljXg-3jKoq3chsFm4-i-13" edge="1">
          <mxGeometry relative="1" as="geometry">
            <Array as="points">
              <mxPoint x="870" y="355" />
              <mxPoint x="870" y="443" />
            </Array>
          </mxGeometry>
        </mxCell>
        <mxCell id="2ljXg-3jKoq3chsFm4-i-10" value="Nginx stable" style="rounded=1;whiteSpace=wrap;html=1;" parent="1" vertex="1">
          <mxGeometry x="720" y="325" width="120" height="60" as="geometry" />
        </mxCell>
        <mxCell id="2ljXg-3jKoq3chsFm4-i-75" style="edgeStyle=orthogonalEdgeStyle;rounded=0;orthogonalLoop=1;jettySize=auto;html=1;entryX=0;entryY=0.5;entryDx=0;entryDy=0;fontSize=13;" parent="1" source="2ljXg-3jKoq3chsFm4-i-12" target="2ljXg-3jKoq3chsFm4-i-13" edge="1">
          <mxGeometry relative="1" as="geometry">
            <Array as="points">
              <mxPoint x="870" y="530" />
              <mxPoint x="870" y="443" />
            </Array>
          </mxGeometry>
        </mxCell>
        <mxCell id="2ljXg-3jKoq3chsFm4-i-76" value="5、请求&lt;br&gt;后端" style="edgeLabel;html=1;align=center;verticalAlign=middle;resizable=0;points=[];fontSize=13;" parent="2ljXg-3jKoq3chsFm4-i-75" vertex="1" connectable="0">
          <mxGeometry x="0.4985" y="1" relative="1" as="geometry">
            <mxPoint x="1" y="1" as="offset" />
          </mxGeometry>
        </mxCell>
        <mxCell id="2ljXg-3jKoq3chsFm4-i-12" value="Nginx beta" style="rounded=1;whiteSpace=wrap;html=1;" parent="1" vertex="1">
          <mxGeometry x="730" y="500" width="120" height="60" as="geometry" />
        </mxCell>
        <mxCell id="2ljXg-3jKoq3chsFm4-i-13" value="Backend server" style="rounded=1;whiteSpace=wrap;html=1;" parent="1" vertex="1">
          <mxGeometry x="950" y="412.5" width="120" height="60" as="geometry" />
        </mxCell>
        <mxCell id="2ljXg-3jKoq3chsFm4-i-15" value="&lt;article data-content=&quot;[{&amp;quot;type&amp;quot;:&amp;quot;block&amp;quot;,&amp;quot;id&amp;quot;:&amp;quot;12nM-1657074474097&amp;quot;,&amp;quot;name&amp;quot;:&amp;quot;code&amp;quot;,&amp;quot;data&amp;quot;:{&amp;quot;language&amp;quot;:&amp;quot;&amp;quot;,&amp;quot;theme&amp;quot;:&amp;quot;default&amp;quot;,&amp;quot;wrap&amp;quot;:false},&amp;quot;nodes&amp;quot;:[{&amp;quot;type&amp;quot;:&amp;quot;block&amp;quot;,&amp;quot;id&amp;quot;:&amp;quot;krue-1657074477845&amp;quot;,&amp;quot;name&amp;quot;:&amp;quot;code-line&amp;quot;,&amp;quot;data&amp;quot;:{},&amp;quot;nodes&amp;quot;:[{&amp;quot;type&amp;quot;:&amp;quot;text&amp;quot;,&amp;quot;id&amp;quot;:&amp;quot;G8jI-1657074477844&amp;quot;,&amp;quot;leaves&amp;quot;:[{&amp;quot;text&amp;quot;:&amp;quot;login&amp;quot;,&amp;quot;marks&amp;quot;:[]}]}]}]}]&quot;&gt;&lt;div data-language=&quot;&quot; style=&quot;&quot; data-theme=&quot;default&quot;&gt;login-server&lt;/div&gt;&lt;/article&gt;" style="rounded=1;whiteSpace=wrap;html=1;" parent="1" vertex="1">
          <mxGeometry x="190" y="190" width="120" height="60" as="geometry" />
        </mxCell>
        <mxCell id="2ljXg-3jKoq3chsFm4-i-53" style="edgeStyle=orthogonalEdgeStyle;rounded=0;orthogonalLoop=1;jettySize=auto;html=1;exitX=0.25;exitY=0.25;exitDx=0;exitDy=0;exitPerimeter=0;entryX=0.5;entryY=1;entryDx=0;entryDy=0;fontSize=13;" parent="1" source="2ljXg-3jKoq3chsFm4-i-17" target="2ljXg-3jKoq3chsFm4-i-15" edge="1">
          <mxGeometry relative="1" as="geometry" />
        </mxCell>
        <mxCell id="2ljXg-3jKoq3chsFm4-i-54" value="1、请求登录接口" style="edgeLabel;html=1;align=center;verticalAlign=middle;resizable=0;points=[];fontSize=13;" parent="2ljXg-3jKoq3chsFm4-i-53" vertex="1" connectable="0">
          <mxGeometry x="0.4429" relative="1" as="geometry">
            <mxPoint y="-9" as="offset" />
          </mxGeometry>
        </mxCell>
        <mxCell id="2ljXg-3jKoq3chsFm4-i-17" value="登录页" style="ellipse;shape=cloud;whiteSpace=wrap;html=1;" parent="1" vertex="1">
          <mxGeometry x="220" y="370" width="120" height="80" as="geometry" />
        </mxCell>
        <mxCell id="2ljXg-3jKoq3chsFm4-i-21" value="" style="curved=1;endArrow=classic;html=1;rounded=0;exitX=0.767;exitY=0.888;exitDx=0;exitDy=0;exitPerimeter=0;entryX=0.333;entryY=0.888;entryDx=0;entryDy=0;entryPerimeter=0;" parent="1" source="2ljXg-3jKoq3chsFm4-i-17" target="2ljXg-3jKoq3chsFm4-i-17" edge="1">
          <mxGeometry width="50" height="50" relative="1" as="geometry">
            <mxPoint x="110" y="620" as="sourcePoint" />
            <mxPoint x="170" y="580" as="targetPoint" />
            <Array as="points">
              <mxPoint x="350" y="460" />
              <mxPoint x="335" y="520" />
              <mxPoint x="230" y="520" />
              <mxPoint x="210" y="460" />
            </Array>
          </mxGeometry>
        </mxCell>
        <mxCell id="2ljXg-3jKoq3chsFm4-i-22" value="3、保存灰度&lt;br&gt;标记到Cookie" style="edgeLabel;html=1;align=center;verticalAlign=middle;resizable=0;points=[];" parent="2ljXg-3jKoq3chsFm4-i-21" vertex="1" connectable="0">
          <mxGeometry x="0.0171" y="-2" relative="1" as="geometry">
            <mxPoint as="offset" />
          </mxGeometry>
        </mxCell>
        <mxCell id="2ljXg-3jKoq3chsFm4-i-60" style="edgeStyle=orthogonalEdgeStyle;rounded=0;orthogonalLoop=1;jettySize=auto;html=1;entryX=0;entryY=0.5;entryDx=0;entryDy=0;fontSize=13;exitX=0.875;exitY=0.5;exitDx=0;exitDy=0;exitPerimeter=0;" parent="1" source="2ljXg-3jKoq3chsFm4-i-63" target="2ljXg-3jKoq3chsFm4-i-10" edge="1">
          <mxGeometry relative="1" as="geometry">
            <mxPoint x="534" y="442.5" as="sourcePoint" />
            <Array as="points">
              <mxPoint x="640" y="443" />
              <mxPoint x="640" y="355" />
            </Array>
          </mxGeometry>
        </mxCell>
        <mxCell id="2ljXg-3jKoq3chsFm4-i-71" value="4、加载&lt;br&gt;主页" style="edgeLabel;html=1;align=center;verticalAlign=middle;resizable=0;points=[];fontSize=13;" parent="2ljXg-3jKoq3chsFm4-i-60" vertex="1" connectable="0">
          <mxGeometry x="-0.4952" y="3" relative="1" as="geometry">
            <mxPoint x="9" y="3" as="offset" />
          </mxGeometry>
        </mxCell>
        <mxCell id="2ljXg-3jKoq3chsFm4-i-73" value="正常请求:&lt;br&gt;Cookie中没有灰度标记" style="edgeLabel;html=1;align=center;verticalAlign=middle;resizable=0;points=[];fontSize=13;" parent="2ljXg-3jKoq3chsFm4-i-60" vertex="1" connectable="0">
          <mxGeometry x="0.2" y="-1" relative="1" as="geometry">
            <mxPoint y="-11" as="offset" />
          </mxGeometry>
        </mxCell>
        <mxCell id="2ljXg-3jKoq3chsFm4-i-25" value="&lt;font style=&quot;font-size: 18px;&quot;&gt;Web&lt;/font&gt;" style="text;html=1;strokeColor=none;fillColor=none;align=center;verticalAlign=middle;whiteSpace=wrap;rounded=0;" parent="1" vertex="1">
          <mxGeometry x="340" y="325" width="60" height="30" as="geometry" />
        </mxCell>
        <mxCell id="2ljXg-3jKoq3chsFm4-i-41" value="" style="shape=umlActor;verticalLabelPosition=bottom;verticalAlign=top;html=1;outlineConnect=0;fontSize=18;" parent="1" vertex="1">
          <mxGeometry x="40" y="402.5" width="30" height="60" as="geometry" />
        </mxCell>
        <mxCell id="2ljXg-3jKoq3chsFm4-i-46" value="" style="shape=umlActor;verticalLabelPosition=bottom;verticalAlign=top;html=1;outlineConnect=0;fontSize=18;" parent="1" vertex="1">
          <mxGeometry x="50" y="412.5" width="30" height="60" as="geometry" />
        </mxCell>
        <mxCell id="2ljXg-3jKoq3chsFm4-i-47" value="" style="shape=umlActor;verticalLabelPosition=bottom;verticalAlign=top;html=1;outlineConnect=0;fontSize=18;" parent="1" vertex="1">
          <mxGeometry x="60" y="422.5" width="30" height="60" as="geometry" />
        </mxCell>
        <mxCell id="2ljXg-3jKoq3chsFm4-i-51" value="" style="curved=1;endArrow=classic;html=1;rounded=0;fontSize=18;entryX=0.16;entryY=0.55;entryDx=0;entryDy=0;entryPerimeter=0;exitX=0.5;exitY=0.5;exitDx=0;exitDy=0;exitPerimeter=0;" parent="1" source="2ljXg-3jKoq3chsFm4-i-47" target="2ljXg-3jKoq3chsFm4-i-17" edge="1">
          <mxGeometry width="50" height="50" relative="1" as="geometry">
            <mxPoint x="140" y="470" as="sourcePoint" />
            <mxPoint x="190" y="420" as="targetPoint" />
            <Array as="points">
              <mxPoint x="110" y="460" />
              <mxPoint x="180" y="410" />
            </Array>
          </mxGeometry>
        </mxCell>
        <mxCell id="2ljXg-3jKoq3chsFm4-i-52" value="&lt;font style=&quot;font-size: 13px;&quot;&gt;登录&lt;/font&gt;" style="edgeLabel;html=1;align=center;verticalAlign=middle;resizable=0;points=[];fontSize=18;" parent="2ljXg-3jKoq3chsFm4-i-51" vertex="1" connectable="0">
          <mxGeometry x="-0.0748" relative="1" as="geometry">
            <mxPoint as="offset" />
          </mxGeometry>
        </mxCell>
        <mxCell id="2ljXg-3jKoq3chsFm4-i-56" value="" style="curved=1;endArrow=classic;html=1;rounded=0;fontSize=13;entryX=0;entryY=0.5;entryDx=0;entryDy=0;exitX=0.625;exitY=0.2;exitDx=0;exitDy=0;exitPerimeter=0;" parent="1" source="2ljXg-3jKoq3chsFm4-i-17" target="2ljXg-3jKoq3chsFm4-i-9" edge="1">
          <mxGeometry width="50" height="50" relative="1" as="geometry">
            <mxPoint x="330" y="340" as="sourcePoint" />
            <mxPoint x="380" y="290" as="targetPoint" />
            <Array as="points">
              <mxPoint x="340" y="360" />
              <mxPoint x="350" y="300" />
              <mxPoint x="370" y="230" />
            </Array>
          </mxGeometry>
        </mxCell>
        <mxCell id="2ljXg-3jKoq3chsFm4-i-57" value="2、查看是否命中灰度" style="edgeLabel;html=1;align=center;verticalAlign=middle;resizable=0;points=[];fontSize=13;" parent="2ljXg-3jKoq3chsFm4-i-56" vertex="1" connectable="0">
          <mxGeometry x="0.0626" y="-11" relative="1" as="geometry">
            <mxPoint x="9" as="offset" />
          </mxGeometry>
        </mxCell>
        <mxCell id="2ljXg-3jKoq3chsFm4-i-58" value="" style="curved=1;endArrow=classic;html=1;rounded=0;fontSize=13;exitX=0.96;exitY=0.7;exitDx=0;exitDy=0;exitPerimeter=0;entryX=0.075;entryY=0.506;entryDx=0;entryDy=0;entryPerimeter=0;" parent="1" source="2ljXg-3jKoq3chsFm4-i-17" target="2ljXg-3jKoq3chsFm4-i-63" edge="1">
          <mxGeometry width="50" height="50" relative="1" as="geometry">
            <mxPoint x="350" y="470" as="sourcePoint" />
            <mxPoint x="414" y="442.5" as="targetPoint" />
            <Array as="points" />
          </mxGeometry>
        </mxCell>
        <mxCell id="2ljXg-3jKoq3chsFm4-i-59" value="登录完成" style="edgeLabel;html=1;align=center;verticalAlign=middle;resizable=0;points=[];fontSize=13;" parent="2ljXg-3jKoq3chsFm4-i-58" vertex="1" connectable="0">
          <mxGeometry x="-0.0696" y="1" relative="1" as="geometry">
            <mxPoint as="offset" />
          </mxGeometry>
        </mxCell>
        <mxCell id="2ljXg-3jKoq3chsFm4-i-63" value="主页" style="ellipse;shape=cloud;whiteSpace=wrap;html=1;" parent="1" vertex="1">
          <mxGeometry x="410" y="402.5" width="120" height="80" as="geometry" />
        </mxCell>
        <mxCell id="2ljXg-3jKoq3chsFm4-i-64" value="" style="endArrow=classic;html=1;rounded=0;fontSize=13;exitX=0.517;exitY=0.106;exitDx=0;exitDy=0;exitPerimeter=0;entryX=0.5;entryY=1;entryDx=0;entryDy=0;" parent="1" source="2ljXg-3jKoq3chsFm4-i-63" target="2ljXg-3jKoq3chsFm4-i-9" edge="1">
          <mxGeometry width="50" height="50" relative="1" as="geometry">
            <mxPoint x="610" y="320" as="sourcePoint" />
            <mxPoint x="660" y="270" as="targetPoint" />
          </mxGeometry>
        </mxCell>
        <mxCell id="2ljXg-3jKoq3chsFm4-i-65" value="定期更新灰度标记" style="edgeLabel;html=1;align=center;verticalAlign=middle;resizable=0;points=[];fontSize=13;" parent="2ljXg-3jKoq3chsFm4-i-64" vertex="1" connectable="0">
          <mxGeometry x="0.5146" y="1" relative="1" as="geometry">
            <mxPoint x="15" y="21" as="offset" />
          </mxGeometry>
        </mxCell>
      </root>
    </mxGraphModel>
  </diagram>
  <diagram id="ZI_2U2H11f7amN8gW74N" name="Page-2">
    <mxGraphModel dx="2728" dy="1059" grid="1" gridSize="10" guides="1" tooltips="1" connect="1" arrows="1" fold="1" page="1" pageScale="1" pageWidth="827" pageHeight="1169" math="0" shadow="0">
      <root>
        <mxCell id="0" />
        <mxCell id="1" parent="0" />
        <mxCell id="iZ3gXnk_qgU0tbLU6VB2-46" style="edgeStyle=orthogonalEdgeStyle;rounded=0;orthogonalLoop=1;jettySize=auto;html=1;fontSize=12;fontColor=#333333;" edge="1" parent="1" source="GFWKQUdUppgSFm0BYbxp-13" target="iZ3gXnk_qgU0tbLU6VB2-1">
          <mxGeometry relative="1" as="geometry" />
        </mxCell>
        <mxCell id="GFWKQUdUppgSFm0BYbxp-13" value="Actor" style="shape=umlActor;verticalLabelPosition=bottom;verticalAlign=top;html=1;outlineConnect=0;" parent="1" vertex="1">
          <mxGeometry x="-124" y="130" width="30" height="60" as="geometry" />
        </mxCell>
        <mxCell id="GFWKQUdUppgSFm0BYbxp-21" style="edgeStyle=orthogonalEdgeStyle;rounded=0;orthogonalLoop=1;jettySize=auto;html=1;entryX=0;entryY=0.5;entryDx=0;entryDy=0;" parent="1" source="GFWKQUdUppgSFm0BYbxp-15" target="GFWKQUdUppgSFm0BYbxp-17" edge="1">
          <mxGeometry relative="1" as="geometry" />
        </mxCell>
        <mxCell id="GFWKQUdUppgSFm0BYbxp-23" style="edgeStyle=orthogonalEdgeStyle;rounded=0;orthogonalLoop=1;jettySize=auto;html=1;entryX=0;entryY=0.5;entryDx=0;entryDy=0;" parent="1" source="GFWKQUdUppgSFm0BYbxp-15" target="GFWKQUdUppgSFm0BYbxp-18" edge="1">
          <mxGeometry relative="1" as="geometry" />
        </mxCell>
        <mxCell id="GFWKQUdUppgSFm0BYbxp-70" style="edgeStyle=orthogonalEdgeStyle;rounded=0;orthogonalLoop=1;jettySize=auto;html=1;fontSize=20;" parent="1" source="GFWKQUdUppgSFm0BYbxp-15" target="GFWKQUdUppgSFm0BYbxp-16" edge="1">
          <mxGeometry relative="1" as="geometry" />
        </mxCell>
        <mxCell id="GFWKQUdUppgSFm0BYbxp-15" value="Envoy&lt;br&gt;轻舟网关" style="rounded=1;whiteSpace=wrap;html=1;" parent="1" vertex="1">
          <mxGeometry x="246" y="130" width="120" height="60" as="geometry" />
        </mxCell>
        <mxCell id="GFWKQUdUppgSFm0BYbxp-16" value="Nginx Default" style="rounded=1;whiteSpace=wrap;html=1;" parent="1" vertex="1">
          <mxGeometry x="490" y="130" width="120" height="60" as="geometry" />
        </mxCell>
        <mxCell id="GFWKQUdUppgSFm0BYbxp-17" value="Nginx Default" style="rounded=1;whiteSpace=wrap;html=1;" parent="1" vertex="1">
          <mxGeometry x="490" y="50" width="120" height="60" as="geometry" />
        </mxCell>
        <mxCell id="GFWKQUdUppgSFm0BYbxp-18" value="Nginx Default" style="rounded=1;whiteSpace=wrap;html=1;" parent="1" vertex="1">
          <mxGeometry x="490" y="212.25" width="120" height="60" as="geometry" />
        </mxCell>
        <mxCell id="GFWKQUdUppgSFm0BYbxp-33" style="edgeStyle=orthogonalEdgeStyle;rounded=0;orthogonalLoop=1;jettySize=auto;html=1;entryX=0;entryY=0.5;entryDx=0;entryDy=0;" parent="1" source="GFWKQUdUppgSFm0BYbxp-36" target="GFWKQUdUppgSFm0BYbxp-37" edge="1">
          <mxGeometry relative="1" as="geometry" />
        </mxCell>
        <mxCell id="iZ3gXnk_qgU0tbLU6VB2-12" value="正常流量" style="edgeLabel;html=1;align=center;verticalAlign=middle;resizable=0;points=[];" vertex="1" connectable="0" parent="GFWKQUdUppgSFm0BYbxp-33">
          <mxGeometry x="0.6569" y="1" relative="1" as="geometry">
            <mxPoint as="offset" />
          </mxGeometry>
        </mxCell>
        <mxCell id="GFWKQUdUppgSFm0BYbxp-34" style="edgeStyle=orthogonalEdgeStyle;rounded=0;orthogonalLoop=1;jettySize=auto;html=1;entryX=0;entryY=0.5;entryDx=0;entryDy=0;" parent="1" source="GFWKQUdUppgSFm0BYbxp-36" target="GFWKQUdUppgSFm0BYbxp-38" edge="1">
          <mxGeometry relative="1" as="geometry" />
        </mxCell>
        <mxCell id="iZ3gXnk_qgU0tbLU6VB2-10" value="灰度流量" style="edgeLabel;html=1;align=center;verticalAlign=middle;resizable=0;points=[];" vertex="1" connectable="0" parent="GFWKQUdUppgSFm0BYbxp-34">
          <mxGeometry x="0.4367" y="3" relative="1" as="geometry">
            <mxPoint as="offset" />
          </mxGeometry>
        </mxCell>
        <mxCell id="GFWKQUdUppgSFm0BYbxp-35" style="edgeStyle=orthogonalEdgeStyle;rounded=0;orthogonalLoop=1;jettySize=auto;html=1;entryX=0;entryY=0.5;entryDx=0;entryDy=0;" parent="1" source="GFWKQUdUppgSFm0BYbxp-36" target="GFWKQUdUppgSFm0BYbxp-39" edge="1">
          <mxGeometry relative="1" as="geometry" />
        </mxCell>
        <mxCell id="iZ3gXnk_qgU0tbLU6VB2-11" value="灰度流量" style="edgeLabel;html=1;align=center;verticalAlign=middle;resizable=0;points=[];" vertex="1" connectable="0" parent="GFWKQUdUppgSFm0BYbxp-35">
          <mxGeometry x="0.6569" y="-1" relative="1" as="geometry">
            <mxPoint as="offset" />
          </mxGeometry>
        </mxCell>
        <mxCell id="GFWKQUdUppgSFm0BYbxp-36" value="Nginx Ingress" style="rounded=1;whiteSpace=wrap;html=1;fillColor=#dae8fc;strokeColor=#6c8ebf;" parent="1" vertex="1">
          <mxGeometry x="-274" y="590" width="120" height="60" as="geometry" />
        </mxCell>
        <mxCell id="GFWKQUdUppgSFm0BYbxp-37" value="Nginx Default" style="rounded=1;whiteSpace=wrap;html=1;" parent="1" vertex="1">
          <mxGeometry x="-8" y="510" width="120" height="60" as="geometry" />
        </mxCell>
        <mxCell id="GFWKQUdUppgSFm0BYbxp-38" value="Nginx Gray-1" style="rounded=1;whiteSpace=wrap;html=1;fillColor=#dae8fc;strokeColor=#6c8ebf;" parent="1" vertex="1">
          <mxGeometry x="-8" y="590" width="120" height="60" as="geometry" />
        </mxCell>
        <mxCell id="GFWKQUdUppgSFm0BYbxp-39" value="Nginx Gray-2" style="rounded=1;whiteSpace=wrap;html=1;fillColor=#dae8fc;strokeColor=#6c8ebf;" parent="1" vertex="1">
          <mxGeometry x="-8" y="670" width="120" height="60" as="geometry" />
        </mxCell>
        <mxCell id="iZ3gXnk_qgU0tbLU6VB2-3" style="edgeStyle=orthogonalEdgeStyle;rounded=0;orthogonalLoop=1;jettySize=auto;html=1;entryX=0;entryY=0.5;entryDx=0;entryDy=0;" edge="1" parent="1" source="GFWKQUdUppgSFm0BYbxp-40" target="iZ3gXnk_qgU0tbLU6VB2-2">
          <mxGeometry relative="1" as="geometry" />
        </mxCell>
        <mxCell id="GFWKQUdUppgSFm0BYbxp-40" value="Actor" style="shape=umlActor;verticalLabelPosition=bottom;verticalAlign=top;html=1;outlineConnect=0;" parent="1" vertex="1">
          <mxGeometry x="-800" y="590" width="30" height="60" as="geometry" />
        </mxCell>
        <mxCell id="GFWKQUdUppgSFm0BYbxp-43" style="edgeStyle=orthogonalEdgeStyle;rounded=0;orthogonalLoop=1;jettySize=auto;html=1;entryX=0;entryY=0.5;entryDx=0;entryDy=0;" parent="1" source="GFWKQUdUppgSFm0BYbxp-41" target="GFWKQUdUppgSFm0BYbxp-36" edge="1">
          <mxGeometry relative="1" as="geometry" />
        </mxCell>
        <mxCell id="GFWKQUdUppgSFm0BYbxp-41" value="Envoy&lt;br&gt;轻舟网关" style="rounded=1;whiteSpace=wrap;html=1;" parent="1" vertex="1">
          <mxGeometry x="-484" y="590" width="120" height="60" as="geometry" />
        </mxCell>
        <mxCell id="GFWKQUdUppgSFm0BYbxp-44" value="" style="shape=flexArrow;endArrow=classic;html=1;rounded=0;" parent="1" edge="1">
          <mxGeometry width="50" height="50" relative="1" as="geometry">
            <mxPoint x="280" y="270" as="sourcePoint" />
            <mxPoint x="-270" y="510" as="targetPoint" />
          </mxGeometry>
        </mxCell>
        <mxCell id="GFWKQUdUppgSFm0BYbxp-82" value="&lt;span style=&quot;background-color: rgb(248, 249, 250);&quot;&gt;方案一&lt;/span&gt;" style="edgeLabel;html=1;align=center;verticalAlign=middle;resizable=0;points=[];fontSize=20;" parent="GFWKQUdUppgSFm0BYbxp-44" vertex="1" connectable="0">
          <mxGeometry x="0.1133" y="-10" relative="1" as="geometry">
            <mxPoint y="1" as="offset" />
          </mxGeometry>
        </mxCell>
        <mxCell id="GFWKQUdUppgSFm0BYbxp-45" value="&lt;font style=&quot;font-size: 20px;&quot;&gt;当前架构&lt;/font&gt;" style="text;html=1;strokeColor=none;fillColor=none;align=center;verticalAlign=middle;whiteSpace=wrap;rounded=0;" parent="1" vertex="1">
          <mxGeometry x="-154" y="65" width="130" height="30" as="geometry" />
        </mxCell>
        <mxCell id="GFWKQUdUppgSFm0BYbxp-47" value="&lt;font style=&quot;font-size: 20px;&quot;&gt;灰度架构 - 多集群&lt;/font&gt;" style="text;html=1;strokeColor=none;fillColor=none;align=center;verticalAlign=middle;whiteSpace=wrap;rounded=0;" parent="1" vertex="1">
          <mxGeometry x="-810" y="527.25" width="190" height="30" as="geometry" />
        </mxCell>
        <mxCell id="GFWKQUdUppgSFm0BYbxp-60" style="edgeStyle=orthogonalEdgeStyle;rounded=0;orthogonalLoop=1;jettySize=auto;html=1;entryX=0;entryY=0.5;entryDx=0;entryDy=0;" parent="1" source="GFWKQUdUppgSFm0BYbxp-61" target="GFWKQUdUppgSFm0BYbxp-65" edge="1">
          <mxGeometry relative="1" as="geometry" />
        </mxCell>
        <mxCell id="GFWKQUdUppgSFm0BYbxp-61" value="Actor" style="shape=umlActor;verticalLabelPosition=bottom;verticalAlign=top;html=1;outlineConnect=0;" parent="1" vertex="1">
          <mxGeometry x="330" y="625.01" width="30" height="60" as="geometry" />
        </mxCell>
        <mxCell id="iZ3gXnk_qgU0tbLU6VB2-32" style="edgeStyle=orthogonalEdgeStyle;rounded=0;orthogonalLoop=1;jettySize=auto;html=1;entryX=0;entryY=0.5;entryDx=0;entryDy=0;fontSize=22;fontColor=#333333;" edge="1" parent="1" source="GFWKQUdUppgSFm0BYbxp-65" target="iZ3gXnk_qgU0tbLU6VB2-28">
          <mxGeometry relative="1" as="geometry" />
        </mxCell>
        <mxCell id="GFWKQUdUppgSFm0BYbxp-65" value="Nginx&lt;br&gt;邮箱IP加速" style="rounded=1;whiteSpace=wrap;html=1;" parent="1" vertex="1">
          <mxGeometry x="480" y="625.01" width="120" height="60" as="geometry" />
        </mxCell>
        <mxCell id="GFWKQUdUppgSFm0BYbxp-68" value="" style="rounded=1;whiteSpace=wrap;html=1;arcSize=2;" parent="1" vertex="1">
          <mxGeometry x="970" y="515.01" width="630" height="214.99" as="geometry" />
        </mxCell>
        <mxCell id="GFWKQUdUppgSFm0BYbxp-69" value="&lt;span style=&quot;font-size: 20px;&quot;&gt;灰度架构 - 多目录&lt;/span&gt;" style="text;html=1;strokeColor=none;fillColor=none;align=center;verticalAlign=middle;whiteSpace=wrap;rounded=0;" parent="1" vertex="1">
          <mxGeometry x="330" y="580.01" width="180" height="30" as="geometry" />
        </mxCell>
        <mxCell id="GFWKQUdUppgSFm0BYbxp-78" value="&lt;span style=&quot;font-size: 20px;&quot;&gt;Docker&lt;/span&gt;" style="text;html=1;align=center;verticalAlign=middle;resizable=0;points=[];autosize=1;strokeColor=none;fillColor=none;fontSize=15;" parent="1" vertex="1">
          <mxGeometry x="1045" y="550.01" width="90" height="40" as="geometry" />
        </mxCell>
        <mxCell id="GFWKQUdUppgSFm0BYbxp-81" value="" style="shape=flexArrow;endArrow=classic;html=1;rounded=0;" parent="1" edge="1">
          <mxGeometry width="50" height="50" relative="1" as="geometry">
            <mxPoint x="350" y="270" as="sourcePoint" />
            <mxPoint x="910" y="520" as="targetPoint" />
          </mxGeometry>
        </mxCell>
        <mxCell id="GFWKQUdUppgSFm0BYbxp-83" value="&lt;span style=&quot;&quot;&gt;方案二&lt;/span&gt;" style="text;html=1;align=center;verticalAlign=middle;resizable=0;points=[];autosize=1;strokeColor=none;fillColor=none;fontSize=20;" parent="1" vertex="1">
          <mxGeometry x="480" y="360" width="80" height="40" as="geometry" />
        </mxCell>
        <mxCell id="iZ3gXnk_qgU0tbLU6VB2-47" style="edgeStyle=orthogonalEdgeStyle;rounded=0;orthogonalLoop=1;jettySize=auto;html=1;fontSize=12;fontColor=#333333;" edge="1" parent="1" source="iZ3gXnk_qgU0tbLU6VB2-1" target="GFWKQUdUppgSFm0BYbxp-15">
          <mxGeometry relative="1" as="geometry" />
        </mxCell>
        <mxCell id="iZ3gXnk_qgU0tbLU6VB2-1" value="Nginx&lt;br&gt;邮箱IP加速" style="rounded=1;whiteSpace=wrap;html=1;" vertex="1" parent="1">
          <mxGeometry x="20" y="130" width="120" height="60" as="geometry" />
        </mxCell>
        <mxCell id="iZ3gXnk_qgU0tbLU6VB2-4" style="edgeStyle=orthogonalEdgeStyle;rounded=0;orthogonalLoop=1;jettySize=auto;html=1;entryX=0;entryY=0.5;entryDx=0;entryDy=0;" edge="1" parent="1" source="iZ3gXnk_qgU0tbLU6VB2-2" target="GFWKQUdUppgSFm0BYbxp-41">
          <mxGeometry relative="1" as="geometry" />
        </mxCell>
        <mxCell id="iZ3gXnk_qgU0tbLU6VB2-2" value="Nginx&lt;br&gt;邮箱IP加速" style="rounded=1;whiteSpace=wrap;html=1;" vertex="1" parent="1">
          <mxGeometry x="-690" y="590" width="120" height="60" as="geometry" />
        </mxCell>
        <mxCell id="iZ3gXnk_qgU0tbLU6VB2-13" value="xxx/nginx-web-root/&lt;b&gt;default&lt;/b&gt;" style="rounded=0;whiteSpace=wrap;html=1;fontSize=15;fillColor=#d5e8d4;strokeColor=#82b366;" vertex="1" parent="1">
          <mxGeometry x="1350" y="593.88" width="220" height="40" as="geometry" />
        </mxCell>
        <mxCell id="iZ3gXnk_qgU0tbLU6VB2-14" value="xxx/nginx-web-root/&lt;b&gt;gray-1&lt;/b&gt;" style="rounded=0;whiteSpace=wrap;html=1;fontSize=15;fillColor=#d5e8d4;strokeColor=#82b366;" vertex="1" parent="1">
          <mxGeometry x="1350" y="633.88" width="220" height="37.75" as="geometry" />
        </mxCell>
        <mxCell id="iZ3gXnk_qgU0tbLU6VB2-15" value="xxx/nginx-web-root/&lt;b&gt;gray-2&lt;/b&gt;" style="rounded=0;whiteSpace=wrap;html=1;fontSize=15;fillColor=#d5e8d4;strokeColor=#82b366;" vertex="1" parent="1">
          <mxGeometry x="1350" y="671.63" width="220" height="37.75" as="geometry" />
        </mxCell>
        <mxCell id="iZ3gXnk_qgU0tbLU6VB2-16" value="&lt;span style=&quot;font-size: 20px;&quot;&gt;宿主机&lt;/span&gt;" style="text;html=1;align=center;verticalAlign=middle;resizable=0;points=[];autosize=1;strokeColor=none;fillColor=none;fontSize=15;" vertex="1" parent="1">
          <mxGeometry x="1400" y="551.13" width="80" height="40" as="geometry" />
        </mxCell>
        <mxCell id="iZ3gXnk_qgU0tbLU6VB2-17" value="xxx/nginx-web-root/&lt;b&gt;default&lt;/b&gt;" style="rounded=0;whiteSpace=wrap;html=1;fontSize=15;" vertex="1" parent="1">
          <mxGeometry x="1000" y="593.88" width="220" height="40" as="geometry" />
        </mxCell>
        <mxCell id="iZ3gXnk_qgU0tbLU6VB2-18" value="xxx/nginx-web-root/&lt;b&gt;gray-1&lt;/b&gt;" style="rounded=0;whiteSpace=wrap;html=1;fontSize=15;fillColor=#dae8fc;strokeColor=#6c8ebf;" vertex="1" parent="1">
          <mxGeometry x="1000" y="633.88" width="220" height="37.75" as="geometry" />
        </mxCell>
        <mxCell id="iZ3gXnk_qgU0tbLU6VB2-19" value="xxx/nginx-web-root/&lt;b&gt;gray-2&lt;/b&gt;" style="rounded=0;whiteSpace=wrap;html=1;fontSize=15;fillColor=#dae8fc;strokeColor=#6c8ebf;" vertex="1" parent="1">
          <mxGeometry x="1000" y="671.63" width="220" height="37.75" as="geometry" />
        </mxCell>
        <mxCell id="iZ3gXnk_qgU0tbLU6VB2-20" value="" style="endArrow=none;dashed=1;html=1;dashPattern=1 3;strokeWidth=2;rounded=0;exitX=1;exitY=0.5;exitDx=0;exitDy=0;entryX=0;entryY=0.5;entryDx=0;entryDy=0;" edge="1" parent="1" source="iZ3gXnk_qgU0tbLU6VB2-17" target="iZ3gXnk_qgU0tbLU6VB2-13">
          <mxGeometry width="50" height="50" relative="1" as="geometry">
            <mxPoint x="1330" y="562.76" as="sourcePoint" />
            <mxPoint x="1380" y="512.76" as="targetPoint" />
          </mxGeometry>
        </mxCell>
        <mxCell id="iZ3gXnk_qgU0tbLU6VB2-25" value="&lt;span style=&quot;color: rgb(0, 0, 0); font-size: 12px; font-family: &amp;quot;Helvetica Neue&amp;quot;, Helvetica, &amp;quot;PingFang SC&amp;quot;, &amp;quot;Hiragino Sans GB&amp;quot;, &amp;quot;Microsoft YaHei&amp;quot;, SimSun, sans-serif; font-weight: 700; text-align: left; background-color: rgb(245, 247, 250);&quot;&gt;&lt;font color=&quot;#333333&quot;&gt;Volume&lt;/font&gt;&lt;/span&gt;&lt;span style=&quot;color: rgb(0, 0, 0);&quot;&gt;&amp;nbsp;挂载&lt;/span&gt;" style="edgeLabel;html=1;align=center;verticalAlign=middle;resizable=0;points=[];fontColor=#333333;" vertex="1" connectable="0" parent="iZ3gXnk_qgU0tbLU6VB2-20">
          <mxGeometry x="-0.0346" y="3" relative="1" as="geometry">
            <mxPoint as="offset" />
          </mxGeometry>
        </mxCell>
        <mxCell id="iZ3gXnk_qgU0tbLU6VB2-21" value="" style="endArrow=none;dashed=1;html=1;dashPattern=1 3;strokeWidth=2;rounded=0;exitX=1;exitY=0.5;exitDx=0;exitDy=0;entryX=0;entryY=0.5;entryDx=0;entryDy=0;" edge="1" parent="1" source="iZ3gXnk_qgU0tbLU6VB2-18" target="iZ3gXnk_qgU0tbLU6VB2-14">
          <mxGeometry width="50" height="50" relative="1" as="geometry">
            <mxPoint x="1230" y="623.8799999999999" as="sourcePoint" />
            <mxPoint x="1450" y="622.7599999999998" as="targetPoint" />
          </mxGeometry>
        </mxCell>
        <mxCell id="iZ3gXnk_qgU0tbLU6VB2-24" value="&lt;span style=&quot;font-family: &amp;quot;Helvetica Neue&amp;quot;, Helvetica, &amp;quot;PingFang SC&amp;quot;, &amp;quot;Hiragino Sans GB&amp;quot;, &amp;quot;Microsoft YaHei&amp;quot;, SimSun, sans-serif; font-size: 12px; font-weight: 700; text-align: left; background-color: rgb(245, 247, 250);&quot;&gt;&lt;font color=&quot;#333333&quot;&gt;Volume&lt;/font&gt;&lt;/span&gt;&amp;nbsp;挂载" style="edgeLabel;html=1;align=center;verticalAlign=middle;resizable=0;points=[];" vertex="1" connectable="0" parent="iZ3gXnk_qgU0tbLU6VB2-21">
          <mxGeometry x="0.0188" y="2" relative="1" as="geometry">
            <mxPoint y="1" as="offset" />
          </mxGeometry>
        </mxCell>
        <mxCell id="iZ3gXnk_qgU0tbLU6VB2-22" value="" style="endArrow=none;dashed=1;html=1;dashPattern=1 3;strokeWidth=2;rounded=0;exitX=1;exitY=0.5;exitDx=0;exitDy=0;entryX=0;entryY=0.5;entryDx=0;entryDy=0;" edge="1" parent="1" source="iZ3gXnk_qgU0tbLU6VB2-19" target="iZ3gXnk_qgU0tbLU6VB2-15">
          <mxGeometry width="50" height="50" relative="1" as="geometry">
            <mxPoint x="1240" y="633.8799999999999" as="sourcePoint" />
            <mxPoint x="1460" y="632.7599999999998" as="targetPoint" />
          </mxGeometry>
        </mxCell>
        <mxCell id="iZ3gXnk_qgU0tbLU6VB2-26" value="&lt;span style=&quot;color: rgb(0, 0, 0); font-size: 12px; font-family: &amp;quot;Helvetica Neue&amp;quot;, Helvetica, &amp;quot;PingFang SC&amp;quot;, &amp;quot;Hiragino Sans GB&amp;quot;, &amp;quot;Microsoft YaHei&amp;quot;, SimSun, sans-serif; font-weight: 700; text-align: left; background-color: rgb(245, 247, 250);&quot;&gt;&lt;font color=&quot;#333333&quot;&gt;Volume&lt;/font&gt;&lt;/span&gt;&lt;span style=&quot;color: rgb(0, 0, 0);&quot;&gt;&amp;nbsp;挂载&lt;/span&gt;" style="edgeLabel;html=1;align=center;verticalAlign=middle;resizable=0;points=[];fontColor=#333333;" vertex="1" connectable="0" parent="iZ3gXnk_qgU0tbLU6VB2-22">
          <mxGeometry x="-0.0562" y="-1" relative="1" as="geometry">
            <mxPoint y="-2" as="offset" />
          </mxGeometry>
        </mxCell>
        <mxCell id="iZ3gXnk_qgU0tbLU6VB2-27" value="&lt;font style=&quot;font-size: 22px;&quot;&gt;Nginx&lt;/font&gt;" style="text;html=1;align=center;verticalAlign=middle;resizable=0;points=[];autosize=1;strokeColor=none;fillColor=none;fontSize=15;" vertex="1" parent="1">
          <mxGeometry x="1250" y="515.01" width="80" height="40" as="geometry" />
        </mxCell>
        <mxCell id="iZ3gXnk_qgU0tbLU6VB2-28" value="Envoy&lt;br&gt;轻舟网关" style="rounded=1;whiteSpace=wrap;html=1;" vertex="1" parent="1">
          <mxGeometry x="690" y="625.01" width="120" height="60" as="geometry" />
        </mxCell>
        <mxCell id="iZ3gXnk_qgU0tbLU6VB2-35" value="" style="curved=1;endArrow=classic;html=1;rounded=0;fontSize=22;fontColor=#333333;exitX=1;exitY=0.5;exitDx=0;exitDy=0;entryX=0;entryY=0.5;entryDx=0;entryDy=0;" edge="1" parent="1" source="iZ3gXnk_qgU0tbLU6VB2-28" target="iZ3gXnk_qgU0tbLU6VB2-17">
          <mxGeometry width="50" height="50" relative="1" as="geometry">
            <mxPoint x="850" y="815.01" as="sourcePoint" />
            <mxPoint x="900" y="765.01" as="targetPoint" />
            <Array as="points">
              <mxPoint x="860" y="625.01" />
              <mxPoint x="900" y="614.01" />
            </Array>
          </mxGeometry>
        </mxCell>
        <mxCell id="iZ3gXnk_qgU0tbLU6VB2-45" value="&lt;span style=&quot;color: rgb(0, 0, 0); font-size: 11px;&quot;&gt;正常流量&lt;/span&gt;" style="edgeLabel;html=1;align=center;verticalAlign=middle;resizable=0;points=[];fontSize=12;fontColor=#333333;" vertex="1" connectable="0" parent="iZ3gXnk_qgU0tbLU6VB2-35">
          <mxGeometry x="0.1138" relative="1" as="geometry">
            <mxPoint as="offset" />
          </mxGeometry>
        </mxCell>
        <mxCell id="iZ3gXnk_qgU0tbLU6VB2-38" value="" style="curved=1;endArrow=classic;html=1;rounded=0;fontSize=22;fontColor=#333333;exitX=1;exitY=0.5;exitDx=0;exitDy=0;entryX=0;entryY=0.75;entryDx=0;entryDy=0;" edge="1" parent="1" source="iZ3gXnk_qgU0tbLU6VB2-28" target="iZ3gXnk_qgU0tbLU6VB2-18">
          <mxGeometry width="50" height="50" relative="1" as="geometry">
            <mxPoint x="880" y="805.01" as="sourcePoint" />
            <mxPoint x="930" y="755.01" as="targetPoint" />
            <Array as="points">
              <mxPoint x="860" y="665.01" />
            </Array>
          </mxGeometry>
        </mxCell>
        <mxCell id="iZ3gXnk_qgU0tbLU6VB2-43" value="&lt;font style=&quot;font-size: 12px;&quot;&gt;灰度流量&lt;/font&gt;" style="edgeLabel;html=1;align=center;verticalAlign=middle;resizable=0;points=[];fontSize=23;fontColor=#333333;" vertex="1" connectable="0" parent="iZ3gXnk_qgU0tbLU6VB2-38">
          <mxGeometry x="0.0728" y="-1" relative="1" as="geometry">
            <mxPoint x="-1" y="-10" as="offset" />
          </mxGeometry>
        </mxCell>
        <mxCell id="iZ3gXnk_qgU0tbLU6VB2-40" value="" style="curved=1;endArrow=classic;html=1;rounded=0;fontSize=22;fontColor=#333333;exitX=1;exitY=0.5;exitDx=0;exitDy=0;entryX=0;entryY=0.5;entryDx=0;entryDy=0;" edge="1" parent="1" source="iZ3gXnk_qgU0tbLU6VB2-28" target="iZ3gXnk_qgU0tbLU6VB2-19">
          <mxGeometry width="50" height="50" relative="1" as="geometry">
            <mxPoint x="820" y="665.0099999999998" as="sourcePoint" />
            <mxPoint x="1010" y="672.1924999999999" as="targetPoint" />
            <Array as="points">
              <mxPoint x="840" y="685.01" />
              <mxPoint x="860" y="695.01" />
              <mxPoint x="930" y="705.01" />
            </Array>
          </mxGeometry>
        </mxCell>
        <mxCell id="iZ3gXnk_qgU0tbLU6VB2-44" value="灰度流量" style="edgeLabel;html=1;align=center;verticalAlign=middle;resizable=0;points=[];fontSize=12;fontColor=#333333;" vertex="1" connectable="0" parent="iZ3gXnk_qgU0tbLU6VB2-40">
          <mxGeometry x="0.1925" y="4" relative="1" as="geometry">
            <mxPoint as="offset" />
          </mxGeometry>
        </mxCell>
      </root>
    </mxGraphModel>
  </diagram>
  <diagram id="mReSPFe8Gl9vuNUx8R0G" name="Page-3">
    <mxGraphModel dx="1426" dy="794" grid="1" gridSize="10" guides="1" tooltips="1" connect="1" arrows="1" fold="1" page="1" pageScale="1" pageWidth="827" pageHeight="1169" math="0" shadow="0">
      <root>
        <mxCell id="0" />
        <mxCell id="1" parent="0" />
        <mxCell id="Pc4GYu4Is_tvCK-LLafG-1" value="" style="shape=image;verticalLabelPosition=bottom;labelBackgroundColor=default;verticalAlign=top;aspect=fixed;imageAspect=0;image=data:image/png,iVBORw0KGgoAAAANSUhEUgAAASwAAACVCAYAAADiz8d8AAABQmlDQ1BJQ0MgUHJvZmlsZQAAKJFjYGASSCwoyGFhYGDIzSspCnJ3UoiIjFJgf8bAxSDJwMlgzMCamFxc4BgQ4ANUwgCjUcG3awyMIPqyLsisO54Wx79nWqtseWA35ZdaYw6mehTAlZJanAyk/wBxUnJBUQkDA2MCkK1cXlIAYrcA2SJFQEcB2TNA7HQIew2InQRhHwCrCQlyBrKvANkCyRmJKUD2EyBbJwlJPB2JDbUXBDhCXI1MdA0NCDiVdFCSWlECop3zCyqLMtMzShQcgSGUquCZl6yno2BkYGTEwAAKb4jqzzfA4cgoxoEQK5nEwGC7g4GB6SNCLMaagWHLVqCXfRBiapwMDLxAtbvfFyQWJcIdwPiNpTjN2AjC5t7OwMA67f//z+EMDOyaDAx/r////3v7//9/lzEwMN9iYDjwDQACB19krvCUpQAAADhlWElmTU0AKgAAAAgAAYdpAAQAAAABAAAAGgAAAAAAAqACAAQAAAABAAABLKADAAQAAAABAAAAlQAAAAAtIxkdAAAdcElEQVR4Ae2deZRUxfXHLwwOIGDAYVFAAaNRwiYgiAl6kiigolGIS1QMzGiMGPyhbOpBCGByRA2aGKKIfyiLBALiQjBHkQgSchAwihsKaNxAQVFQNkHp3/sUvrFn5nVPd0/v/b3n9HT3e69uVX3r9Z1b99X9lplZKFdfp06ZEhocOhhq1qlTzvYhV7FXu3P3d5PLY1fHa3zOysdLllhJj1Ns10cf5Wwf1HAhIARiR6CWdyneiUQICAEhkPUI1M76FqqBQkAICIFvEZDB0q0gBIRAziAgg5UzQ6WGCgEhIIOle0AICIGcQUAGK2eGSg0VAkJABkv3gBAQAjmDgAxWzgyVGioEhIAMlu4BISAEcgYBGaycGSo1VAgIARks3QNCQAjkDAIyWDkzVGqoEBACUQ1Wz549bfHixXbxxRcLKSEgBIRAxhGIarBatmxphx9+uLVr1y7jDVUDhIAQEAJR2RpqF9W2dm3b2UcefcuePXuElhAQAkIgowhENVgZbZkqFwJCQAhUQiDqlLDStfoqBISAEMgoAjJYGYVflQsBIRAPAtUarF/+8pd2+eWXx6NT1woBISAEUoJAtQYrJbVKqRAQAkIgAQRksBIATUWEgBDIDAJ5bbDOOussa9u2bWaQVa1CQAgkHYG8Nlhjx461Hj16JB00KRQCQiAzCOS1wcoMpKpVCAiBVCGQFRupnnzyyXbttdfa9OnT7bLLLrMf/OAHtnr1arv77im2d+8++973vmcDBgwwchsbNWrkHdtrf//73+3ZZ5+14uJiu/TSS+3MM8+0Jk2a2IcffmhPPPGEPfPMMxUwY2o4cuRI27Vrl429daw1atgook7SkaivV69eTif1LVq0yJ588kk78sgj7de//rV1797dDhw4YI8//rjNnz/f1dWlSxe78MILrVOnTvbNN9/YBx98YKNGjarQDn0RAkIgcQSywsNq3LixnXjiiTZlyhRngDZs2GDEnzp16mx16tSxm2++2QYPHmxffPGFPfbYY3bCCSdYSUmJ6/XQoUOtrKzM1q1bZ1OnTrX169c7HeGQcP2f//xnO/roo+2BBx6w2rVqR9RZq1Ytu/HGG+3qq692BmnhwoXWunVra9GihWvLxEkT7YwzznBG8e2337brrrvOMFSUGzFihLVv396mTZtms2fPto0bN4Y3Q5+FgBCoIQIxeVh4FL7wwyW3MEgwCJHOvfrqq/b6668HFSs/9p///MfGjR/nvB88lx/96Ef21VdfOU9nxowZ9vDDD7trMRIInhcezXPPPWf33HOPO7bE274+XLp162ZDhgxxxg5vZ/Pmzc7A4D0F6fz+97/vjCWG8d5773WqrrjiCvdOEnjHDh2Ndr744ou2adMmO/300w0P8ZVXXrEGDRpYUVGRM5jPP/+87dy5M7wp+iwEhEANEajWYM2dO7eGVcRe/P7777eD3xy0r7/+2k2p6tat6zwvNPz73/8uV4Q3gzRv3ty9v/baa+496A+GCcHDwlgheHNIkE68MQSD40vt2occUZ+1AkOKkUJICq9fv76FQiGbPHmyXX/99TZ69Gj3PmvWLFuwYIHt37/fV6V3ISAEaoBAtQYL3ekyWnhTSNeuXZ2n8sYbb7gYEsf27NnNmw0cONAwIBitbdu2uWNcz9QtSB599FHnBTHNe//99+3NN9+0evXquUuDdH537hA7Rd++fY0pK+J7j+PHj7cVK1a4Y+F/1q5da6VlpdbZm8oOGjTIxbqIYwVdG15On4WAEIgNgSLvsgmxXZq6q9p6AfGf/OQnbsr44x//2MWPdu/e7eJNTKv69+/vgt0E44ktIe+9954zBHhEvXv3tuOOO84F1Dt06GDNmjVz3hRTwWXLltlDDz1kGJ6+/fraqlWr7JNPPomoc/ny5W6aSYzsmGOOcQ8DmOYxpV227DlPTz877bTT7J133rFWrVq54DxTU7woppx4XJ9++qkdPHjQPSTAU3v33Xddm/VHCAiBmiGQVQYLo8VUi8D5HXfc4Z6ybf9su7Vu1dp+9rOfuWA7gfWjjjrK9u3b56Ztq9estlYtW7l419lnn+3emfoRhCf2tGbNGmekXnrpJet/bn9nGGfMnGEtmrcI1MmTQIwV9WH8iHP98Ic/dMYUXbyYEsLC2qdPH2PaSjzrk0+22TnnnGMXXXSR8wI7d+7sYl2PPPKIM141GyaVFgJCwEcg5H3I6MszVCEvcB5q06ZNyAtcB7alRYvmofr16wWeo/3eUoSQ5xGFvGUOEa+p3M8gnR7Laqhp06Yhz0tzbfGe+rm2nX/++RX0eg8fQt4yigrH0E/98bajcrv0PbP3o/DPXvxjimF5A5gWYTrFVDBItm49FK8KOscxyvKKR4J0smShtLTUeVLo4ztPA5cuXVpB9datWyt8978wNSRuJRECQiD5CGTFlJBuscaKaRuLMTMpW7ZsceunjjjiCLfuiinizJkztUQhk4OiuoXAtwiwPoBpjUQICAEhkPUIHFpglEXNFGFgFg2GmiIEsgyBrDNYWYaPmiMEhEAWISCDlUWDoaYIASEQHQEZrOj4VDhLrmS/fv2qJFdXuEhfhIAQSBkCMlhxQEsOIswRrGyXCAEhkH4EZLDSj7lqFAJCIEEECtJg3XfffS7Pj1xA+LFItTnssMMMtohjjz3W5S3edNNNjiSQ1BrScMIFCpq77rrLcWJBw+ytwA8/rc9CQAikCIGCNFjkIp500kmOF4uEathK/WOsVI9E0uePwe23316FaNA/p3chIARSh0BWpeb43Uw1YSBMoTBE8EJgX4DVgbQgKJgjkfTBEIEEEQ1C6SwRAkIgtQhkncFKB/cW1DAYqcZNGht8Wb/4xS8cpQyGLBpJnz8UQUSD/jm9CwEhkDoEss5g0dVUGy08pUsuucShOm/ePEcTA5Uym1dEI+mD/gYJIhp0J/RHCAiBlCKQlQYrpT32lPtsCrAwQOa3cuVKx2WFIdu0aaM7Nnz4cLc7D8ym7Nbz1ltvOepm2gY/FgF7gvHbt293fFupbrP0CwEhYFaQBsvndvfjTsSkIN+DQpltxcaMGWMTJkxwTwK5SZgqssmEL5xjG6+XX37ZPWXE6EmEgBBIPQJia4iCMTsE8dTw888/L78KjwvqGTbKiMTdVX6xPggBIZBUBGSwkgqnlAkBIZBKBApyHVYqAZVuISAEUoeADFbqsJVmISAEkoxAwRssEQYm+Y6SOiGQQgQK3mClEFupFgJCIMkIyGAlGVCpEwJCIHUIFOQ6rNTBmVzNEAayIau3Z6NbXhGunTxIErgRNpUlF7KywN/FTtqzZs3K+G5Eldum70IgEQRksBJBLU1lfMLA//73v271fXi17Ep9zTXXWMOGDSMaLGhzrrzySluyZEn56v5wHfosBHINAU0Jc23Evm3v4sWL7YILLrAZM2ZE7AGJ3WVlZTJWERHSiVxDQB5WGkbs5JNPtmuvvdamT59ul112mcHBRVrQ3XdP8T6faEOHDrVbbrmlfEX9X/7yF3vsscfs4MGDrnUQBpIuFF6OFKJI4l/PeVKIhl0/zA5+c0gXx4qLi+3SSy91PGBNmjSxDz/80CV+P/PMM5yWCIGsRUAeVhqGpnHjxsb0bsqUKVWI/0jz4Vxx8WHlLSG5uqSkpPx7vISBO3futKeeesq2bdtm7du3t6LabPD9nWAg8bzWrVtnU6dOtfXr17t2fXeFPgmB7ERAHpY3LqkmDPSHPoj478UXX/RPR3wPKucnbgcV+vTTT53HxLnevXtXuIQNNC688EIXyL/nnnvcOWJcEiGQCwgUvMFKNfdW+E2QKPFfouXC6/Y/N2/e3H187bXX/EN6FwI5g0DBGyxGKl1GK4j4z49TFRfXdTcNgfTatSvO1IPKJXqHMU1EunbtagsXLkxUjcoJgYwgIIOVRtiDiP9atmzpWnDuuee6tVJXXHFFlRYFlQu/iCA6gX0C7K+++mr4Kfe5S5cu9sUXX9iGDRuM+BaEhUwVJ06caIsWLTIC75x/4YUXqpTVASGQTQjIYKVxNIKI/zAgrLMipxFPiukfMTWMDy8kqJzfbHi56tSpY8SjDhw4YH379vVPlZdnSzLYVf1Y3eQ7JtuokaPc9mZnnHGGu27mzJkyWOXI6UM2IxDyGqdXCjHwuOBD3mr1UJs2bUINGjQIxLply6NDhx9+eJVzHmFgyAuURyxXk7GjvmOOOSbkeWhV6q2JXpXV7ylV94A8LA/ZdMmePXsispRu2fJRYDNCoZCbxgWerOFB2sNLIgRyBQEW6EzIlcbmcjuJEb300kvK6cvlQVTbM46AKJIzPgRqgBAQArEiUPH5eayldF3CCIgwMGHoVFAImAyWbgIhIARyBgEZrJwZKjVUCAgBPSXUPVAFAZKx84H4r3Xr1tajRw+DCJHNbufPn1+lrzqQWwjIYOXWeKWltflA/NeuXTv761//6vDaunWrlTQtkcFKy92T2kpksFKLb05qh/gPyuUPPvggJ9tPo88++2z7+puvray0zGCvkOQHAjJY+TGOFXpxwgkn2KhRoxwb6c9//nPH/Q731Z133ukWrnor3G3AgAHWq1cvl0e4d+9el1P4+uuvO6JAlFUm/oums0+fPnbOOee4+qDC4dqRI0faP//5z3KamwoNDPsSjUyQ/Mirrr7KvAwB27Z1m2FI0RmtLSy0ZUrbrVs3+2z7Z+at5Hevd955J2ULcMO6o48pRkALR1MMcGX1HTt2NC/dJjBJufK1iX7nB3755Zc7RtFdu3YZnFv9+vWzjz/+2DZu3OiM0kUXXWSbN2+2p59+2n760586b+rll192+YxwZnXv3t0emf1IOetpNJ0rVqxwHFvUweLYcePGWf369e2+++5zfPPR+jFs2DDHwvr888/bP/7xD8PgfPnll64cUzqYUhc+utBatWrl6sDwIJH6x8p9GFubNm1qECeeddZZLr9y7dq1rv/R2qJz2Y+APKwMjJGfhEzVLVq0sI8+Ck7LIVgc6RysDHhE0YSk6ptvvtmtrocN4sgjjzTok/kRQ8F87733uuI+Q0Q04j+/niCdn3/+uf3ud79zMSOMDEnYv/3tb8spn71cSmc8fB1Q6uAp4elFIhMcMmSIFRUV2R/+8Ad74403DA576HDOO++8cjqgoLb873//c/2D3RXjhfGU5A8CMlgZGkufByuV1U+bNq08FWj37t2O1YHpFIJH40tl/i3/eNB7kE6ugw2C7cjwsvDiePly+umnOw/J/44XtXTpUotGJujT7vh6SG16++23zT+Orkht8evRe/4hIIOVgTF98MEHy72EVFYP9YwvGAmkXr167t1PeoaOhqlTrBKkk7KdOnUyYln79+83+LsGDhxYThB42223BaqPRibIMgSEGBTTwLr16tqxxx7r+Od9ZZHa4p/Xe/4hoIWj+TemUXvENAoZPHiwexGcjyQQ/7FTT3VCvIgpIU8VST1iCseUkHhdNKlMJnjKKac4o3fqqac6kkHKogfOrhuG3+CMLU8vJYWLgAxWHo69T/wXPu3kGB7Je++9554I8oSQwPXDDz9sPCX0ywCH/xniv9GjRzuE/GNBOtnCrFGjRo7BlHgWHhXBfozYYYd9txtQENSQCS5fvtxOO+00o76bbrrJPeXD6EFKiOcGMyrLFIhhEfuK1ha/Dvoa7oH5x/We+wiIvC2F5H3e7VEBX88DCXmGosKxytek8rsXAwp5HlGoWbNmjhTQ2wbMkQuef/75GWsT/Y1EJgi54FFHHRVq2KhhRtuXyjGR7oq/kWh4KIbloVNIwvSqtLTU1qxZ456i8Z2AOUHwTAoxNT+uFt4OYmIsx5AIARCQwSqw+4DdnTEALMpkrRRLG9jjMMhYFBg06m4OICCDlQODlMwmfvbZZy7tRsHrZKIqXelCQAYrXUh/Ww+LQdMpPLVjndWcOXPSWa3qEgIpQUAGKyWwRlYaaeV65BI6IwSEgI+AljX4SOhdCAiBrEdABivrhyg/GgiDQllZWbXrsir3NtFylfUk8p2UIj+VKZHylCFvs23btokWz3g5QhikW8GqkQ0ig5UNo1AAbfBJAb01VXH1NtFycVUS4eIbbrjBSNyuiYwdO9axnkbSceWVV7pUpkjnM32cfxgk0MPgkQ2iGFY2jEIBtCFRUsBEy+UKpHidZBqwsl9SPQIyWNVjpCtiQIC8Q6hiSKUhdYa8QvIUobMZM2aM08DxYdcPcxxXvkrSeqCRIRGaqYe3At9mzZrleLUilaOuoUOH2i233FJOYQMHFpQ5//rXvyxSW/w6I71XJjaEjscXPkMLBE8Y9DmPP/54OeVyrPUxNYTYkLSl+++/30pKSpx66Jy7du3qPr///vu2fft2t04uiLyQ9XNgNn36dMcjRq4n6+juvnuKZ/j2+c2t8g43GWlYcKCNHz/ekS2yeJh1eLfffrtrU6T+ocwfx1jrq9KAJB2QwUoSkIWsBkLCESNGWN26dR3lCwtSfRoYEpyfeuopI7G5d+/eVlS7qILBgo2BaR8r2hctWuRIB5s0aeLYQSOVO+KII1y+YXHxd3mKMERAmROtLdHGiHI33nijizlBQkjeos9bVqdOHZs4aaId1+44tzyEadJ1111nGzZssFdeeSVi38PrIxb2xz/+0Rk7DDlMsBh4BK4yjDXy+9//3rFTcC1c9H+b8zeHG8YbQ4dxp374vqibNhAnW7JkiTNcTknAH6biJ510kiM2xOiceeaZ7p8Kx8A+Uv98VRi1eOrzyyX7XQYr2YhmoT7/h0fTUkUY2KBBA/djIjiL4cBQIbGQAnIdP1SYSzFgJFDHWo6ylSVSWypfF/49GrEhHlDHDh0N+mfYW0llIiCPt8OPuLr6oGse4hESwumFscLLmTp1qnvBIQbp4YIFC8qbw7WRyAtJ/kZoy7jx46xRw0bO28Po42lFErjE8PB4ISSbs3gYnjQS1yP1j2R5JN76XKEU/FHQPQWgZpPKuXPn2gMPPOCojsOZFpLZRri2Jk+e7H6QsDtQJ0wQsT5ZgpoZY4XA1hD+4423nYm2xX8aGERsiMFCMAp4NkypSGXCk4ylPpgxmG4+9NBDzlhV1yffO41GXsiUEvpoGCmYauPdRhM4xY4//ng7pccpjhuftuPhYcii9c/XGW99frlkv8vDSjaiWagPA5JqgTO9tKzUOnfqbIMGDXLTKeJYviGKVj9TknjEN7zFxYd+pBdccIFbze/rSKQt0YgN/cW+GKqg/lRXHw8O8MiYchKjevPNN/2muikiHlq4xEJe+NVXX7kixL7wxqoL2uMpXXLJJa7MvHnzHO8Ynt8TTzxRTsMd1D//KWm89YX3J5mfZbCSiWaB6mLD0muuucbFqkisXrVqlQtO80OqLASomRoRe4lHwssRy0GI/RAA9znpORZPW7jel3BiQ9oWrnPTpo1uI9bhw4e7J3rEu3r27GlvvfWWMz7V9Z1YFJ4nAe4777rThv/fcIN7Hnn33Xfd0okXXnjBtX3Hjh2OvBAPFfJCDArTNwwqUzhfiNmxMcfFF1/sgvRgHk38LduYzmIQV65c6XY6wpBF65/PKRZvfdHaUpNzMlg1QU9lHQIHDux3T7wmTZrkFobu27fPxbH4Ufjik+5B0sePxo+r+cf96yq/++fDy61fv94wMORJ8p+f6Qr6uDZaW4g5+U/mwuvBw8NzIujfv39/94CAJ2p4bujk6RtB7wkTJjiSQcoylSJ+Fa0+rsOgogPPiunun/70J6fjV7/6lZtWMk3Es6EPiB/PgryQHYXwghCfvJAduRHagl6m00z5MULR+udvWOLHuYhJsTUb7YrWP1dZhPr8c+l8r+VVBjGaJE0I8CND0jFNS1OXyqshZkVQH48i3mleuZI4PrRsebTt2LEzkBonqC0Yhs6dO1epgXgUBgRhWQXfCUYHCf2jbzwYCJeg+sLPR/sMKytP8fAcw/Wik+UUu3bvsl1fHvIqmaLB5EpgngcT4e2MpX/R2sG5oP7hUfJkFm8rvL7qdKXqvJgcK7GCekCnDBMYR3mlsg7pTt34ZRpbz2A5hlgYYzPdlkzUr6eEHuoSIZArCBDzmjlzZlZ4OpnATDGsTKCuOoVAgghgsIh7FarIYKV55Ml+JyYgEQJCIH4EZLDix6xGJVjTE89OyzWqTIWFQJ4hoBhWng2ouiME8hkBeVj5PLpp6hs7P5PczNoeFoUmQ9q2beuSddHFuq7wRZPJ0C8duYmADFZujltWtZqEZRZFwu0UyWBBVEficHUpJH7HOnTo4FbPN2zYUAbLB0XvpimhboK0IIAxI70jVlm8eLFbaT5jxoxYi+i6AkBAHlYeDjJZ+KRd8GNnmgYTAcRxUJPwhDKRc+S0VSdQtPzmN7+x9u3b27p16xyzASukmTIilYnq8LpYOd2jRw/HJkH6CeXZ7JV0E4kQqIyAPKzKiOTB9+XLlxtTqVtvvdV5NaRywMkNdUqi52KBBf5y6oHjCXYC0kjIxyMPECFZmc+8YCYlTkWSL4m9kNLBIMqUsk+fPrFUp2sKEAF5WBkYdD/xl6pTQahHPhpGikRaXiTgkvnv56kleq46qEhIZsMC6sM4NW7cOCpRHZ4gdMCjR4/ycivn2dKlSx2LAIZLIgSCEJCHFYRKGo7B6eTzOqWiOhgR8HQQiOB8Mji+J3qOstFk2rRpzlhxDVM9qIWrE4zUrl2HEo2hRIYQj5dECAQhUP0dFVRKx2qEwIMPPphytgamXEytYBYg2D1w4EBHUULDEz1XXad97iSuq2x08LoqE9VxXXgZli8Q81ImAMhIghCQhxWESo4fI8jNtA/SNuhsWErAlLBjx44uAJ7IOR8SiOt4ggdxXDziE9Wx6QGbJrBuK1aBZgWuJwytpLARkMHKw/FnGyg2Fpg4caKLW912222OawlDxfZYiZyDswmBbxx+cp8HnGMQySHhU1yOhXtPJOzC+QRRHcF5Au6c5zrfG6N85XJcw9QSQjv41CWFjUAtr/sKGKTxHsDjIZdwzpw5aaw1eVXVLqpt7dq2czzgEN3FI5GI6uLRoWsLGwHFsAp7/OPuPTu1QA+ciBDH8rnFEymvMkJAU0LdA0JACOQMAjJYOTNUaqgQEAKaEqb5HoDAT3xYaQZd1eUNAjJYaR5KEfilGXBVl1cIaEqYV8OpzgiB/EZABiu/xzcjvWPpRvfu3TNStyrNbwRksPJ7fNPeO1alw3113nnnpb1uVZj/CCiGlf9jnNYekrt41VVXuZX1aa1YlRUEAjJYeTjMmSDwKy0ttV69epWjSb7hk08+6b536dLFaBO5gKTesHh01KhR5dfqgxCIFQFNCWNFKoeuS5SkL1q56roPwyj0MLzIE4TnC4F5YcSIEY6FFPqZ2bNnV6C6qU6vzguBcASUSxiORho+E5CGBhiKGSQVBH7oPf744x15HzEln8DP58RK9Bx6Y5EFCxbY008/7fqIwZo/f74VFRW57ytXrrSdO3fGokbXCIEqCMjDqgJJag/MnTvX8ZXnI4FfEHIwMUyePNlRH48ePdrxgEGLjCGVCIF4EVAMK17EknA9RivVkihJX7RyibZ57dq1VlpWap07dbZBgwYZFNHEsVasWJGoSpUrUATkYeXhwGcTgV/r1q1t0qRJ1rNHT9uxY4etWrXKIc4UUSIE4kVABitexHLg+nQT+IVDQsyKHXt88r4DB/ZbSUmJM1qQ+LHkgd17iGVJhEAiCEDgp5cwiOke8Aj8Qt7+gyGPdTTw+jZt2oS8zS9CAwYMqHDei1mFvB2iQ7zrftPvLdF7QDGsREx8AZcJIvCD+njMmDG2detW69atm+3du9dWr15dASUWlIq8rwIk+pIAAjJYCYCmIhURwBht2bLF7UO4bNkye/bZZ23z5s0VL9I3IZAEBLQOKwkgSoUQEALpQUBB9/TgrFqEgBBIAgIyWEkAUSqEgBBIDwIyWOnBWbUIASGQBARksJIAolQIASGQHgRksNKDs2oRAkIgCQjIYCUBRKkQAkIgPQjIYKUHZ9UiBIRAEhCQwUoCiFIhBIRAehCQwUoPzqpFCAiBJCAgg5UEEKVCCAiB9CDw/+T7kT9goENLAAAAAElFTkSuQmCC;" vertex="1" parent="1">
          <mxGeometry x="100" y="230" width="300" height="149" as="geometry" />
        </mxCell>
        <mxCell id="Pc4GYu4Is_tvCK-LLafG-3" value="" style="shape=flexArrow;endArrow=classic;html=1;rounded=0;fontSize=12;fontColor=#333333;" edge="1" parent="1">
          <mxGeometry width="50" height="50" relative="1" as="geometry">
            <mxPoint x="460" y="304" as="sourcePoint" />
            <mxPoint x="580" y="304" as="targetPoint" />
          </mxGeometry>
        </mxCell>
        <mxCell id="Pc4GYu4Is_tvCK-LLafG-4" value="&lt;font style=&quot;font-size: 15px;&quot;&gt;目前前端包结构&lt;/font&gt;" style="text;html=1;strokeColor=none;fillColor=none;align=center;verticalAlign=middle;whiteSpace=wrap;rounded=0;fontSize=15;fontColor=#333333;" vertex="1" parent="1">
          <mxGeometry x="150" y="190" width="200" height="26" as="geometry" />
        </mxCell>
        <mxCell id="Pc4GYu4Is_tvCK-LLafG-6" value="灰度上线后" style="text;html=1;align=center;verticalAlign=middle;resizable=0;points=[];autosize=1;strokeColor=none;fillColor=none;fontSize=20;fontColor=#333333;" vertex="1" parent="1">
          <mxGeometry x="460" y="250" width="120" height="40" as="geometry" />
        </mxCell>
        <mxCell id="Pc4GYu4Is_tvCK-LLafG-7" value="" style="shape=image;verticalLabelPosition=bottom;labelBackgroundColor=default;verticalAlign=top;aspect=fixed;imageAspect=0;image=data:image/png,iVBORw0KGgoAAAANSUhEUgAAAUEAAACRCAYAAABdRwqqAAABQmlDQ1BJQ0MgUHJvZmlsZQAAKJFjYGASSCwoyGFhYGDIzSspCnJ3UoiIjFJgf8bAxSDJwMlgzMCamFxc4BgQ4ANUwgCjUcG3awyMIPqyLsisO54Wx79nWqtseWA35ZdaYw6mehTAlZJanAyk/wBxUnJBUQkDA2MCkK1cXlIAYrcA2SJFQEcB2TNA7HQIew2InQRhHwCrCQlyBrKvANkCyRmJKUD2EyBbJwlJPB2JDbUXBDhCXI1MdA0NCDiVdFCSWlECop3zCyqLMtMzShQcgSGUquCZl6yno2BkYGTEwAAKb4jqzzfA4cgoxoEQK5nEwGC7g4GB6SNCLMaagWHLVqCXfRBiapwMDLxAtbvfFyQWJcIdwPiNpTjN2AjC5t7OwMA67f//z+EMDOyaDAx/r////3v7//9/lzEwMN9iYDjwDQACB19krvCUpQAAADhlWElmTU0AKgAAAAgAAYdpAAQAAAABAAAAGgAAAAAAAqACAAQAAAABAAABQaADAAQAAAABAAAAkQAAAAC5+EvBAAAgLUlEQVR4Ae2deZRU1fHHS0Y2BQOOMrLJElyQTdmCAT0mCqhoBKIQhCiDaIDgj93lIITB5IgaxChRxD9YJSIIKNFEFgWRHAQMoiC7QQTMoCggW0Do3/sU57U9w3s93T3TPb1UndPdr9+7S93v7ampu9T3niMiAeflK7/5zW+kTJkyMmvWLN809sAQMAQMgVRFoEyqKm56GwKGgCFQEgiYESwJFK0MQ8AQSFkE0toI3nTTTVK3bt2U7RxT3BAwBOKPQFobwZEjR0qrVq3ij6LVYAgYAimLQFobwZTtFVPcEDAEEobAuQmrKUxFV199tfTr108mT54sPXr0kMsvv1xWr14tzzwzXo4dOy4/+clPpEuXLtK6dWupXLmyc++YvPbaa7JkyRIpV66cdO/eXW688UapWrWq7N69W9544w1ZtGhRgRoZFg8bNkwOHz4sIx8bKZUrVfYt87zzztNnbdq00TKpb+HChfLmm2/KhRdeKPfff7+0aNFCTp48KQsWLJA5c+ZoXc2aNZPOnTtLkyZN5NSpU/Lll1/K8OHDC+hhXwwBQyC5EEgKT7BKlSpyxRVXyPjx49Wobd26VZjPa9KkqZx77rnyyCOPyL333iuHDh2S+fPny2WXXSbZ2dmKZP/+/aVPnz6yfv16mThxomzatEnLCIWZ9H/5y1+kevXq8tJLL0mZc8r4lnnOOefIkCFDpG/fvmrk5s2bJ7Vq1ZKcnBzVJW9snlx//fVqaHfs2CEDBgwQjB/5hg4dKg0bNpRJkybJzJkzZdu2baFq2LUhYAgkIQIReYJ4Pq5gDL766iv3a4FPjIzfs08//VQ2btxYIH3hL//6179k1OhR6qXhYf385z+X//3vf4JHNm3aNJk6dapmwfAgeIh4Xu+9955MmDBB7y1evFg/3bfmzZtL79691YDile3Zs0eNll+ZP/3pT9UAY2yfe+45LaZnz576Wa9ePWncqLGg50cffSTbt2+X6667TvBkP/nkEzn//PMlKytLjfD7778vBw8edNWwT0PAEEhSBIo0gq+++mrCVH/xxRfl9KnT8sMPP+hwsnz58uohosAHH3wQ1AOvC6lWrZp+btiwQT+93jB2CJ4gBhDB60S8ysRrRDBirrBZHMEIIhhnDB9y9OhRqVixogQCARk3bpw8+OCDMmLECP2cMWOGzJ07V06cOKFp7c0QMASSD4EijSAqJ8oQ4vUh11xzjXpUn332mc7Jce/o0SN8SNeuXTWCBUO4b98+vUd6hq1e8vrrr6u3xhB3165dsnnzZqlQoYIm9Srzx2dHNU2HDh2E4TriermjR4+WFStW6L3Qt7Vr10pun1xp6gzje/XqpXOHzAt6pQ3NZ9eGgCFQeghkOVWPKb3qz9Rc11m0uOGGG3S43LZtW52PO3LkiM7fMaTs1KmTLkiwYMJcHfLFF1+occFza9eundSvX18XPRo1aiQXX3yxen0Mg5ctWyZTpkwRjFmHjh1k1apV8vXXX/uWuXz5ch1iM+dYu3ZtXbBhiMtwftmy95xyOsq1114rn3/+udSsWVMXUBiW4+0x3MYz/Oabb+T06dO6kINHuXPnTtXZ3gwBQyD5EEgqI4ghZJjJ4saTTz6pq6v7v90vtWrWkl/+8pe6IMLixyWXXCLHjx/XIevqNaulZo2aOkS9+eab9ZNhLwslzOWtWbNGDd+6deuk062d1NhOmz5NcqrleJbJCjAGkPowqMxFXnXVVWqgKYsXw+G77rpL2rdvLwzZmR/8+ut9csstt8idd96p3mrTpk117vCVV15Rg5h8XW8aGQKGgIsABAql+nKMX8BZ3AjUqVMn4CwueOqSk1MtULFiBc9n6O9sawk4nlvA2TLjm6ZwO73KrFGjRuCiiy4KON6k6uKs9qput99+e4FynQWigLMlp8A9yqf+aPUorJd9L93fo+GfWfhHNCfo/CgSIgwlGQZ7SX7+mfk/r2fcIy+vaMSrTLa/5ObmqsdHeXxnFXjp0qUFis7Pzy/w3f3CsJh5QBNDwBBIDQSSYjgMVOwBZMjKBuTSlL179+r+vgsuuED3BTI8nj59um13Kc1OsboNgTgiwF4ThnQmhoAhYAhkJAJnNsAlUdMhcb377ruTSCNTxRAwBNIZgaQzgukMtrXNEDAEkg8BM4LJ1yemkSFgCCQQATOCUYBNbHTHjh3PImiIoghLaggYAkmGgBnBKDqEmGMYbYgQMTEEDIH0QMCMYHr0o7XCEDAEYkQgI43gCy+8oHG9xP7CL0gYXNmyZQUWm0svvVTjlB9++GElbiXsjRC5UIFu6+mnn1ZOQSj8nUiW0Md2bQgYAimEQEYaQWKPr7zySuUVhJQBVmr3HhEffsSpbr8+8cQTZ5G/us/s0xAwBFILgaQKm3OhizeJK4zQMNfwQmCFgW2GkD3o+/2IU2GuQbzIXzkOwMQQMARSD4GkM4KJ4C6EBgvDV6VqFYFv8Ne//rXSZ2EcwxGnut3rRf7qPrNPQ8AQSC0Eks4IAl+8DSEeXbdu3bSnZs+erZRY0PBzQFM44lSovhAv8ld9YG+GgCGQcggkpRGMN4ouywvsMBCsrly5UrkAMY7bt2/Te4MGDdJT7WCw5pS7LVu2KO0/usEvyKIKCyb79+9XvsJ462zlGwKGQHwQyEgj6J414s7jMccHISr0+xzx+dBDD8mYMWN0BRjYGSZzkJIrPONIzY8//lhXlzGkJoaAIZCaCBiLTJh+42Q9Vou/++67YCo8Q2i2OAzKj/swmNguDAFDIOkRMCOY9F1kChoChkA8EcjIfYLxBNTKNgQMgdRCwIxgavWXaWsIGAIljEDGG0EjcS3hX5QVZwikGAIZbwRTrL9MXUPAEChhBMwIljCgVpwhYAikFgIZuU8wVboIElcOcXfOZNatOqF6E/cMCQTCQfTEPhcW+A/btm0rM2bMKPVT/ArrZt8NgWRBwIxgsvSEhx4uieu///1vjWIJTdKoUSN54IEHpFKlSr5GEIqw3/72t7J48WI7CzkUPLs2BEIQsOFwCBipdPnWW2/JHXfcIdOmTfNVG3KIPn36mAH0RcgeGAIi5gkm4Fdw9dVXS79+/WTy5MnSo0cPgcOQkL1nnhnvXF8h/fv3l0cffTQYmfL888/L/Pnz5fTp06odJK6E8oXmI7zPT9z0PCe8b+CDA+X0qTNlca9cuXLSvXt35VGsWrWq7N69W8kjFi1axGMTQyCjEDBPMAHdXaVKFWFoO378+LPIWAnB41m5cmWDmkDQkJ2dHfweLYnrwYMH5e2335Z9+/ZJw4YNJatMVrAsLjC6eIjr16+XiRMnyqZNm1SvAonsiyGQIQiYJ+h0dLxJXN3fkhcZ60cffeQ+9v30yueSP3hl+uabb9Sz41m7du0KJOGQqM6dO+tiy4QJE/QZc4YmhkCmIpDxRjDe3IWhP6xYyVhjzRdat3tdrVo1vdywYYN7yz4NgYxGIOONIL2fKEPoRcbqzvuVK1def4gsdpQpU3CWwitfrL9ahsjINddcI/PmzYu1GMtnCKQNAmYEE9iVXmSsNWrUUA1uvfVW3cvXs2fPszTyyheaiIUOFl9YBPn0009DH+l1s2bN5NChQ7J161ZhvhASWYbJeXl5snDhQmFxhOcffvjhWXnthiGQ7giYEUxgD3uRsWKU2AdIDDMeH0Nf5igxaLwQr3yu2vAannvuucL83smTJ6VDhw7uo2B+jgeFRdud+xz35DgZPmy4HjV6/fXXa7rp06ebEQwiZxeZhkDAabC94oiBczZJwIn6CNSpUydw/vnne2Jdo0b1wHnnnXfWM4fENeAsZvjmK07fUV/t2rUDjid5Vr3FKdfy2t9TKv0GzBN0eitRcvToUV826r17v/JUIxAI6BDW82Exb6IPLxNDIJMRYAPZmEwGIFFtZ85t3bp1FsObKMCtHkMgQgSMXj9CoCyZIWAIpCcCBfdipGcbk6pVRuKaVN1hyhgCYkbQfgSGgCGQ0QiYEczo7rfGGwKGgK0OZ8hv4LrrrpP//ve/sm3btohaXKtWLWnVqpVA7Mrh8nPmzIkoX+FEkZC/Fs5j3w2BRCJgRjCRaJdiXYMHD5Z//vOfERnBevXqyV//+lfVNj8/X7Ivyo7ZCEZC/grxK0QSn332WSkiZFVnKgJmBDO158O0++abb5YfTv0gfXL7CIw0xRHIX3ndc889ymHoVRa0XseOHTMj6AWO3Ys7AmYE4w5x6VTgRINIly5dpE2bNhobfOGFFwYV4ZoQuhYtWui+xQULFqinRx64DZs3by7f7v9WnGgSfX3++ee6YRsaLsps3bq1VK5cWQ3Xa6+9psNlP2LYd999N1hv4QvKv+iii/Q23iekDsiuXbtk//79em1vhkC8EbCFkXgjXArlO6F2MmTIEOnbt68aOdhiOIwJIc44b2yeEDP8xhtvyI4dO2TAgAECyUJOTo4QZ9ygQQNxQvz0mu/169fXfI888ojce++9SrYA8/Vll12m5K+REMN6wQBjDuUjEEhwzatJkyZeye2eIRAXBMwTjAus4Qt1iQxIheH56ivvkDkWJfyewRazceNGz4qg17/pppuUov+5557TNC47DR5X40aNBaJW5uEgVmDRBBYazishHwzYhNONGjUqWD5GEq+SNFOnTtX7GM/iCKzWvDhNjznIuXPnFqc4y2sIxISAGcGYYIs9UyK4C/HQkPfffz+oqMtRiBFEOIkOw4dg8CpWrKjXfm8Mk5EPPvggmASP08QQSHUEzAiWQg/G2xBWqFBBW+WSI0CvxTkniOtZjh49WlasWKH3Inn7scwjmrxr165K/oohjIQYNlwdUIA57DrhktgzQyBuCJgRjBu0pVcw/IQI83cQqbpDYe5t375NFzIGDRqkCxsYMRY6tmzZIkuWLCGJp6xdu1Zyc3Odecb71ZDefffdmo6FDQ5qQsIRw/Lcj/x1586d4tCNKZ8h+xMPHDgg1GdiCCQCAVsYSQTKCa7jiy++UMZo5vAwVszhQasPSStHdXJ85+HDh3UR4qmnntJVWZfCH1UhauUVKpu3bJalS5fKL37xC8ELfPbZZwXjBSs1RtAlhu3WrZsSw544cSJI6uqW6ZK/MucYKlOmTJFLLrlE840cOVLq1q0b+tiuDYG4ImAsMnGFt3QLv/jii3W+78iRM0PYwtqwKIOx+u677wo/8v2ek1NNV4e9zj12iGEdL+5gTByFZcuWVUOIcY5GH19F7YEhECECZgQjBMqSGQKGQHoiYMPh9OxXa5UhYAhEiIAZwQiBsmSGgCGQngiYEUzPfg22ykhcg1DYhSHgiYAZQU9Y7KYhYAhkCgJmBDOlp62dhoAh4ImAbZb2hMVuJhIBQvLatm0rM2bMSOnT+EqKiDaR2FtdDqmIgWAIlDYCxDFDrLp48WL58ssvS1udmOovSSLamBSwTDEjYEYwZugsY0kh8Prrr8uyZctS1gCCQ0kS0ZYUrlZOZAiYEYwMJ0sVBgFYa4YPH640W7/61a/kyiuvlPXr1wsheUSrFCZ4hUV64cKFSgVGCB9CSN/ABwfK6VOn9Xu4Mtu3by+33HKL1gclGGmHDRsm//jHP5QjUQvweSN+uXv37nLjjTdqyN/u3bs1z6JFi5RV576+9ymX4r78fYJxpsxwugQCgbBEtD5q2O0kQiDL0WVMEuljqpQwAo0bNxZIEuAfjJdAwEqMMoaFsDd4Cjt27Bg82AlDd+edd8qePXvknXfe0fhjhr0ff/yxELMMYzUs16/MfCXISBOuTNhvOnfurHWsW7dOeQ+hAnvhhReC5LF+bR04cKD06NFDacb+/ve/C0bs+++/13xwGmKE570+T2rWrKl1wKqN+LUPpp7nn39eGbJh6oGPEdYeCCA42Mok+REwTzD5+6jYGsabxNVVEBIF2KehxoJRBhr/cASvnF8CuzXSrl07t5gCn15lElv8hz/8QYlYMVzU9/vf/z4YcwwjjUsdRmFQfeHR4ZFiPCFxnTBhgtbDPCTSu3dvycrKkj/96U961gnnosDIfdttt4lLfealy3/+8x9fIlot2N6SHgEzgknfRSWjoMv5VzKleZcyadKk4Oouw2BYYxhKIl4Er96lFLzrVSYpYMTGmOFxcoxo6FGiMGXjybmCtwcDTrVq1fTWhg0b3EfBzxo1aui1W86hQ4f06AH3Pg/9dAkWYhcpiYAZwZTstuiUfvnll4PeTHQ5o0sdSr+F4UF+JGM9qt9DCV71RhFvXmWShXNImBuEBeeqq65Sei88N+Txxx/Xz8Jv0IkhHOjkpnXTcLYywuFPDIHLVygvl156aZArkWd+uvDMJHURsM3Sqdt3KaE5Q0gEgldeLKD4CeeYXH755X6Pg/chcmU4zLwiYYGcV8xwmPnPcHLw4EFZuXKlDr3z8vKkZcuWakh/9rOf6X3yUg6HUA0eNFgNOKvWJumNgBnB9O7fhLSOlV0kdMjNPTwnL4JXVofdPORzrzlpbsSIEdwK3vMqs1+/fnrkJ4aM+UE8PxZkMIzwEoaTcU+Ok+XLl8u1116rpLIPP/ywru5iSJknxMOkXLa84C0yl+jq56WLWxdtDfUU3fv2mRoIMG6xV5pi4HhKAWdls9T615lTCzieW8AheA0454gEGjZsGHDm8gK33357qenE791ZJAk4Q9+As2WmgB58d1iuA5UqVypw3/5G0tdG2JxgavyjSlktGVpyNsmaNWuUcZrvLGqwUFGawtYW9yCqUD2YY7StLaGIpP+1GcH07+NSbSGbkDEqHO/JXj7OQV69erWnASpVRa3yjEXAjGDGdn1iGv7tt99qSJwtMCQGb6slegTMCEaPWUrlqF69ekL1ZbWWg95nzZqV0HqtMkMgVgTMCMaKXIrkcw9bTxF1TU1DIOEI2BaZhENuFRoChkAyIWBGMJl6w3QpMQQgau3Tp0+R+wYLVxhrvsLlxPKdcD83zDCW/OSBwCGVD69n+oZQSNh+EiVmBBOFtNWTUARcolZnz19U9caaL6pKfBIPHjxYIH8ojowcOVJatWrlWwTktYQZJqvwTwgSDpiFEiU2J5gopK2ehCIQK1FrrPkS2rhiVIZ3TMQOETImZxAwI2i/hJREgDhjaLEIcyOsjThi4pKh7vIjaqWhhNxBmQWZAsMuJ5JFzzaBl9AvH3X1799fHn300SBdFxyC8+fPl3fffVf8dCkK2MJks1CPucI1FGjwLEIVtmDBApkzZ44+jrQ+hsWQzRJS+OKLL0p2drbm5ygASCSQXbt2yf79+30JZdnfCWaTJ09WHkZiu9nn+cwz4x1jelzL8HqD23Hq1KnKITl69GglwGXDPPtEn3jiCdXJr32U5/ZjpPV56RDpPTOCkSJl6ZIGAUhihw4dKuXLl1d6KzZhu5RXkCS8/fbbSo4AR2FWmawgWzUNgCWGIS+RIbBbuwzT4fJdcMEFGl9crtyPcckMKaEHC6dLOMDIN2TIEJ3DwwATp+zyPkJBljc2T+rXq69bjRgiDhgwQLZu3SqffPKJb9tD62Nu8c9//rMaUP45wPjNPw0Erkf+ASB//OMflTWHtPn5+fK3WX9Tggn+IWA8+YdB/ePHj9e60YF5R3gYMYZ+wjQEDOOQXWDIwJl/VNwDe7/2ueVhKGlrpPW5+WL5NCMYC2qWJywC7h8ziXJycsRvmw6T4H7PYMLeuHGjbz1OHLL+gTKBjjHCiCGRELWSjj9+GKoxipAwRJqPvIXFT5fC6UK/hyObxVNr3KixcHQALN2EGbJogleGYSiqvubNm0tvhyQWTkQMIIzeEydO1BccjBDRzp07N6gOaf0IZSGQQNBl1OhRUrlSZfVK+UcSzgju2LFD8ER5IRBWsGEensnKlSv7tg/CDSTa+jRTjG+2MBIjcJbNGwFYmF966SVllAllXfFOHdtduArHjRunf+SwzlAn9PeRrihC648BRGCRCTUI0WoUqy7uKrAX2SxGEMHQ4IExnCTOGY83kvratGmjLNpTpkxRA1hUm1wvOhyhLMNpjh6AKYfpB7zwcAInY4MGDaRlq5Z6Vgu644liHMO1zy0z2vrcfLF8micYC2qWJywCLh192ETFfMgZHrl9cqVpk6bSq1cvHUoy3HKNW7jiGY5FI64xL1fuzB/+HXfcoVExbhmx6BKObNb1jjF+Xu0pqj4Wd/AcGW4z57d582ZXVR0e40mGSiSEspwFgzCXiNdY1MIKHl23bt00z+zZs5W3EQ+V4xTCtc9dHY+2Pq0oxjczgjECZ9lKDwEOOX/ggQd07g9yhlWrVukCAn+chYVFBIaFzC1FI6H5mBtDmEtjkaJnz57BoqLRJZjJuQglm0W30DK3b98mGKZBgwbpSi7zh61bt5YtW7aoQSuq7czt4SGzCPHU00/JoP8bJJyFguzcuVO34Xz44YeC7gcOHFBCWTxpCGUxUgxdMdIMX11hDpQjC+666y5dSAHzcMI/JIShPG2BzJYTAjGO4drncjJGW184XYp6ZkawKITsedIhcPLkCV3pHDt2rG6GPn78uM4L8ofmikuEClErf4juPKV7301X+NN9Hppv06ZNarSIi8ZDYahGeaQNpwtzeO6KbGg9eKJ4eCzMdOrUSRdxWEnFw6RMVl1ZmBgzZowSv5KXYSTzgeHqIx1GmjLwABnqP/vss1rGPffco0Nqhsh4mLQBcecHIZTlJD68NcQllG3btq1+RxfKZSqB6Q4MW7j2ufO57rwhc3wYQfQK1z6tzHnzqs99VtKf5zgFQh5pkqYI8IeLJGKImmgImQNk4QXPJ9ohbiy61qhR3fGcDnrSgHnpgrFp2rTpWVUxv4dRQtiiw3cWDLyE9tE2Fm9Cxau+0OfhrmHfZvUWDze0XMpka87hI4fl8PdnvF+GpzB2s3jC4lGonpG0L5wePPNqH54vK/J4haH1FVVWcZ4bg26asko7P4oAzNK8uLaXYRDtb8AxgsoEDjN4tHlTJb2tDjs9ZWIIGALeCDCHOH369IR5ZN5axPeuzQnGF18r3RBIaQQwgswjprOYEUzn3nXaxoZk5lhMDAFDwBsBM4LeuKTNXfZkwfRsYggYAt4I2F+HNy521xAwBDIEAfMEM6Sj06mZBOW3bNlS40vZCF0SUrduXQ3upyz2HYZuFC6J8q2M5EXAjGDy9o1p5oMApAdsBIYbz88IQh4K+UBR4V1uFY0aNdIolEqVKpkRdEHJkE8bDmdIR2daMzGQ0TAov/XWWxqxMW3atEyDKuPba55gxv8Eig8A7CCERGFACI+CIQUyT2iYWJmO5RkxrEUJdFS/+93vpGHDhrJ+/XplXCHSgOEyUpg8FO+QCATo5yFFIDSM/BwQTyiYSWYiYJ5gZvZ7ibZ6+fLlwjDyscceU++LMCvOiIAmKtZnkSjIeRrUA0cerCmEeBF/S9wvAuEB17xgoGbeD6IAyAEgCoUpmuF0+/btI6nO0qQpAuYJpmnHhjbLJQ/gXjxITok/xfARjM+LIH4YSdy41FifhbbB6xomFg7loT4MXpUqVcKSh+KxQiU/YsRwJ5Z6tixdulTZTTCGJpmLgHmCGdL3DP9cXrx4NBmmFjwyBHJOl6CT77E+I284mTRpkhpA0jDMhZa+KMHwHT58hqwAGn5ISnmZZC4CRf9qMhebtGn5yy+/HHcWGYabDCthPGFBomvXrjrnBoixPiuqA1zuOdIVNmR4h4XJQ0kXmoetMMwhWkQNyGSumCeYuX1fYi1nIYIhL0SaUHexLYXhcOPGjXWRIpZnrnKQibJyC5lnNOKSh3KwDwcDsa8wUoFSCq48jLdJ+iNgRjD9+zjuLeRIRg7PycvL03nAxx9/XLnqMH4cVRnLMzjvEM6/4GhK91wK7kHuiYQO77kX6uUR9A9nHuShLKCwKMJz0rleI/kL5yMNw2pIRjnfwyT9ETjHaaJNiKRxP+OZETs8a9aslGxlmawyUq9uPT2XAvLRaMSPPDSaMixt+iNgc4Lp38cp3UJOOINaPhZhXtA96yKW/JYnMxCw4XBm9LO10hAwBHwQMCPoA4zdNgQMgcxAwIbDad7PkKoan2Cad7I1r1gImBEsFnzJn9lIVZO/j0zD0kXAhsOli7/VbggYAqWMgBnBUu4Aq774CLANqEWLFsUvyErISATMCGZkt6dPo4nugDvwtttuS59GWUsSioDNCSYUbquspBEgVvm+++7TCJWSLtvKywwEzAhmRj/HtZWlQaqam5srbdq0CbaL+OI333xTvzdr1kzQidhfwuLYMD18+PBgWrswBEIRsOFwKBp2HRMCsRKnhstXlCIwSUOFxYu4YHgSERhhhg4dqmzTUG3NnDmzAK1XUeXa88xDwGKH07zPWTSAQh46LSQepKqU26BBAyVUZY7OJVV1OQVjfUa5kcjcuXPlnXfe0TZiBOfMmSNZWVn6feXKlXLw4MFIirE0GYqAeYJp3vGvvvqqnp+RjqSqXl0HQ8y4ceOUNn/EiBHKowilPsbZxBDwQsDmBL1QSbN7GMJ4S6zEqeHyxarz2rVrJbdPrjRt0lR69eolHC/AvOCKFStiLdLypTEC5gmmcecmqmnJRKpaq1YtGTt2rLRu1VoOHDggq1atUhgYHpsYAl4ImBH0QsXuRYVAoklVQ5VjDpCT7lxC1ZMnT0h2drYaQohV2T7DqXfMDZoYAn4IQKpqL8MgKX8DDqlqwDlfOOCwS3vqV6dOnYBzwFOgS5cuBZ47c4CB2rVrB/i037f9fYf7DdicoN+/BrufFAh4kapCm//QQw9Jfn6+NG/eXI4dOyarV68uoC+bqI1QtQAk9sUHATOCPsDY7eRFAAO3d+9ePWd42bJlsmTJEtmzZ0/yKmyaJTUCtk8wqbvHlDMEDIF4I2ALI/FG2Mo3BAyBpEbAjGBSd48pZwgYAvFGwIxgvBG28g0BQyCpETAjmNTdY8oZAoZAvBEwIxhvhK18Q8AQSGoEzAgmdfeYcoaAIRBvBMwIxhthK98QMASSGgEzgkndPaacIWAIxBsBM4LxRtjKNwQMgaRG4P8BZl9Ocd+vvOUAAAAASUVORK5CYII=;" vertex="1" parent="1">
          <mxGeometry x="680" y="131" width="321" height="145" as="geometry" />
        </mxCell>
        <mxCell id="Pc4GYu4Is_tvCK-LLafG-8" value="" style="shape=image;verticalLabelPosition=bottom;labelBackgroundColor=default;verticalAlign=top;aspect=fixed;imageAspect=0;image=data:image/png,iVBORw0KGgoAAAANSUhEUgAAAUYAAACTCAYAAADyU7DYAAABQmlDQ1BJQ0MgUHJvZmlsZQAAKJFjYGASSCwoyGFhYGDIzSspCnJ3UoiIjFJgf8bAxSDJwMlgzMCamFxc4BgQ4ANUwgCjUcG3awyMIPqyLsisO54Wx79nWqtseWA35ZdaYw6mehTAlZJanAyk/wBxUnJBUQkDA2MCkK1cXlIAYrcA2SJFQEcB2TNA7HQIew2InQRhHwCrCQlyBrKvANkCyRmJKUD2EyBbJwlJPB2JDbUXBDhCXI1MdA0NCDiVdFCSWlECop3zCyqLMtMzShQcgSGUquCZl6yno2BkYGTEwAAKb4jqzzfA4cgoxoEQK5nEwGC7g4GB6SNCLMaagWHLVqCXfRBiapwMDLxAtbvfFyQWJcIdwPiNpTjN2AjC5t7OwMA67f//z+EMDOyaDAx/r////3v7//9/lzEwMN9iYDjwDQACB19krvCUpQAAADhlWElmTU0AKgAAAAgAAYdpAAQAAAABAAAAGgAAAAAAAqACAAQAAAABAAABRqADAAQAAAABAAAAkwAAAADjqmTqAAAgnUlEQVR4Ae1dB5RV1dXezMAAwiA4wChFSlBBYJAamqYooKARiEIQVGZEAwRFqroQZNAsUYMaJYqYtaRHpCkEE5o04UfAKIpSNaiUDAgC0gTh/ffbeJ5vhntf49X7vr3We7ects933uzZp32nmIh4rA+FCBABIkAEfkIgjUgQASJABIhAYQQCGsY//OEPctdddxVOxSciQASIgIsRCGgYXVx3Vo0IEAEiYIsADaMtLHxJBIhAKiPgasN40003Sc2aNVO5fVl3IkAEwkDA1YZxxIgR0rx58zBgYRIiQARSGQFXG8ZUbljWnQgQgfARKB5+0silvO6666Rv374yceJE6dGjh1x99dWyfv16ef75cXLy5Cm59NJLpUuXLtKiRQvJzMy03p2Ut956S5YuXSoZGRnSvXt3ufHGG6VChQqye/dueeedd2Tx4sWFFESXesiQIXLs2DEZ8fgIySyb6ZjnJZdcomEtW7bUPFHeggULZP78+XLZZZfJ/fffL02bNpUzZ87I22+/LbNmzdKyGjVqJJ07d5aGDRvK2bNn5ZtvvpGhQ4cW0oMPRIAIJD4CCeExli9fXq655hoZN26cGrrt27cLxgcbNsyR4sWLy6OPPir33nuvHD16VObNmydXXXWVZGVlKbr9+vWTvLw82bRpk4wfP162bNmiefhCj/h//etf5YorrpDXXntN0oqlOeZZrFgxGTRokPTp00cN39y5c6VatWqSnZ2tuuSPyZcbbrhBje8XX3wh/fv3FxhEpBs8eLDUq1dPJkyYINOmTZMdO3b4qsF7IkAEkgSBoDxGeEhGYCD27dtnHgtdYXicwj799FP57LPPCsUv+rB27VoZOWqkenPwxFq3bi0//PCDwHObPHmyTJo0SZPAGEHgScJDW758ubzwwgv6bsmSJXo1X02aNJHevXurUYX3tmfPHjVkTnn+4he/UKMMA/zSSy9pNj179tRrrVq1pEH9BgI9P/zwQ9m5c6dcf/31Ao/3k08+kTJlykh6eroa5lWrVsmRI0eMGrwSASKQRAgENIxvvvlmzKrz6quvyrmz5+THH3/UrmjJkiXVk4QC77//vlcPeGeQypUr63Xz5s16tfuCAYTAY4RRhMA7hdjlCe8SAsNmJC3tvGMNwwiBwYYxhJw4cUJKly4tHo9Hxo4dKw8++KAMGzZMr1OnTpXZs2fL6dOnNS6/iAARSA4EAhpGVCNWxhHeIaRx48bqeX3++ec6xod3J04cx0W6du0qMFQwjvv379d3iI8ur53MmTNHvTp0j7/++mvZunWrlCpVSqPa5flz2AmN0759e0FXH2K84VGjRsnq1av1ne/Xxo0bJTcvV3KsIYBevXrpWCTGGe3i+qbjPREgAomFQLqlzuh4q1TTmhj59a9/rV3tNm3a6Pje8ePHdTwQ3dFOnTrppAcmZTD2B/nqq6/U4MDDa9u2rdSuXVsnVurXry+VKlVS7xBd6BUrVsgbb7whMHDtO7SXdevWyYEDBxzzXLlypXbPMYZZvXp1nRRC9xhDAStWLLfy6SCtWrWSL7/8UqpWraqTNOjSwytEVx0e5Lfffivnzp3TySJ4nrt27VKd+UUEiEByIJBQhhHGEV1UTKA888wzOqt78NBBqVa1mvz2t7/VSRdMsFx++eVy6tQp7e6u37Beqlapqt3bm2++Wa/oMmMyBmODGzZsUGP40UcfSaeOndQAT54yWbIrZ9vmiZlnGEWUByOLsc1rr71WjTbywgdd6TvvvFPatWsn6O5jvPHAgf1yyy23yB133KFebU5Ojo5FTp8+XY1kcvwcqCURIAIGAdCOxfVjGUSPNYHiqVGjhseawLDVJTu7sqd06VK2YdDfWmLjsTw8j7V8xzFO0Xra5VmlShVPxYoVPZbXqbpYs8yq22233VYoX2sSymMtDyr0Dvmj/FD1KKoXn+P7eyT+xD+oMUbrhxITQTcUXWg7KSg4P55oF4Z3SItPKGKXJ5bi5ObmqmeI/PCM2edly5YVyrqgoKDQs3lAlxrjihQiQASSF4GE6EoDPqxRRHcXi6bjKXv37tX1h+XKldN1i+haT5kyhUtv4tkoLJsIxBgBrHtBd5BCBIgAESACPyFwfoFeAsFBYtwEagyqQgRSFIGEM4wp2g6sNhEgAgmEAA1jAjUGVSECRCAxEKBhDKEdsBe8Q4cOF5BUhJAFoxIBIpAECNAwhtBI2GMNph/sdKEQASLgXgRoGN3btqwZESACYSKQkobxlVde0X3M2OsMfkZs8StRooSA3efKK6/UfdmPPPKIkuFiSx+2//kKqMmee+455WTE8QnWjhzfYN4TASKQ5AikpGHEXuu6desqLyOIKcD+bd5h54oTGa1p66effvoCQl0TxisRIALJj0BCbQk0cEabGBfM22D0wQcCthyw8GA7Io5OcCKjBaMPxI5QF0cxUIgAEXAHAglnGGPB/QjKMBjD8hXKC/gaf//73yvVGAymPzJa0+R2hLomjFciQASSH4GEM4yANNrGEZ5ft27dtPVmzpyp9GE4AgGHaPkjowUtGsSOUFcD+EUEiIArEEhIwxhtZA37DVhzQFq7Zs0a5VKEwdy5c4e+GzhwoJ5GCKZwnE64bds2PXIBuoGfERM3mJQ5ePCg8j1GW2fmTwSIQOwQSEnDaM5+MeOCGDMEySyOPsBxrcOHD5fRo0frzDOaAl1sHHZlBGE4HvXjjz/WWW0YVwoRIALuQYDsOn7aEiciYpb6u+++88aCBwlKMhzY5cQd6Y3MGyJABJISARrGpGw2Kk0EiEA0EUjJdYzRBJR5EwEikPwI0DAmfxuyBkSACEQYgZQ3jCTGjfAvitkRARcgkPKG0QVtyCoQASIQYQRoGCMMKLMjAkQg+RFIyXWMydJsIMbNyckR68xtXTbkqzf2eYMIA3Lq1Cnd6+0bjnvwR7Zp00amTp0a99MXi+rGZyKQyAjQMCZw6xhi3P/85z+6G8dX1fr168sDDzwgZcuWdTSMoFO7++67ZcmSJTzr2hc83hOBAAiwKx0AoEQNXrhwodx+++0yefJkRxVBkJGXl0ej6IgQA4iAPQL0GO1xiejb6667Tvr27SsTJ06UHj16CDggsR3x+efHWffXSL9+/eSxxx7z7rB5+eWXZd68eXLu3DnVA8S42Kbomw5bF53ExEc4ti4OeHCAnDt7Pi+8y8jIkO7duysPZYUKFWT37t1KoLF48WIEU4hAyiNAjzEGP4Hy5cvreN+4ceMuILjF9kJ0mTMySng1AUlFVlaW9zlUYtwjR47Iu+++K/v375d69epJelq6Ny/cwBDDk9y0aZOMHz9etmzZonoVisQHIpDCCNBjtBo/2sS45vdlR3D74YcfmmDHq106Q4Bhl+jbb79VDxBhbdu2LRQFB3l17txZJ3ReeOEFDcMYJIUIEIGfEUh5wxht7sefoRY9UwZdWhBQoItbsmRJ32DH+0gS41auXFnL2bx5s2N5DCACqY5AyhtG/ABiZRztCG7NOGJGxnkjiQmVtLTCIxx26cL94aJ7DWncuLHMnTs33GyYjgi4GgEaxhg2rx3BbZUqVVSDjh076lrDnj17XqCRXTrfSJhMwQQPvNBPP/3UN0jvGzVqJEePHpXt27cLxh9BzIsudn5+vixYsEAwAYPwDz744IK0fEEEUhEBGsYYtrodwS0MFdYpYs82PEN0mzHmCSOHD8QunVEb3fLixYsLxgvPnDkj7du3N0He9DjqFWzlZix17DNjZeiQoXps7A033KDxpkyZQsPoRY43REDEY4HATxQxsM6K8Vi7Vzw1atTwlClTxhbrKlWu8FxyySUXhFnEuB5rwsQx3cW0HcqrXr26x/I4Lyj3YvJlWv49JftvgB6j1YKxkhMnTjiyfu/du89WDY/Ho91f28CLfAl98KEQASJQGAEscBtd+BWfooEAxvA++ugj7lmOBrjMkwhEGAEebRBhQJkdESACyY9A4XUhyV+fhK8BiXETvomoIBEQGkb+CIgAESACRRCgYSwCCB+JABEgApyV5m8gZghUq1ZNmjdvLiDgPXDggMyaNctbdlp6mnjOeQSz8BQiEG8EaBjj3QIpUn6tWrXkb3/7m9a2oKBAsipmqWEEi1Bubq506tRJZs+e7Y2TIrCwmgmKAA1jgjaM29S6+eab5cezP0pebp6A/QcCph8Q7Zq94OnphenR3IYB65M8CNAwJk9bhaSptatFunTpIi1bttS90CdPntR90fPnz1fSXBghEEp06NBBKlWqpOfCwGODsUK6Fi1aSGZmpiDdW2+9JU2bNtXnUU+M8pLe/upXv5K77rpLSXYPHTpkqx/0AN9kkyZN5NDBQ2LttNHPl19+qYvLn3jiCd3f/fe//902PV8SgXggwMmXeKAe5TKtbYQyaNAg6dOnjy4oB4sOxveys7O1ZBinO+64Q8M//vhjZQoHkQT2XD/66KNy7733KqkEWMSvuuoqJc39/PPP9WCt1q1ae7UH4QX2czsZRUREmdirXadOHbG2ROo9nmvXrq26gY/y9OnT3jx5QwQSAQF6jHFoBUPmgKJhOPbts98OiEkKpzCw6Hz22We22uNog5tuukmPR3jppZc0jh1rz1NPPSWrV69WD+67774THLAFDxPd20mTJmm6/v3763Xp0iVqMHv37i1r/2+t1L2mrhrNJ598UsOt/eACpnIjoFP717/+Jf/9739VF7CXY/vhyJEjTRReiUDCIkDDGOOmiQX3I7w8yKpVq7y1K8rxCE8RRhHyyCOP6LVbt256ff/99/WKL3ifEJwxM336dHnooYekVctWcv3118vhw4dlzdo1Go7nqlWr6j2+MLu8bNkyboH0IsKbZEKAhjEOrRVt41iqVCmtlSGIABWZrzeHQLvu68/pjmv6rl27KmmuMY44LOuee+6RYcOG6XijTpyc+kHjGs9RH/hFBJIcARrGJG9AO/XB7wjBWCHIae260XbpNm7cqEtn+vS5X7vwmFiBVKxYUa/Hjx9Xr/FPf/qTjksuWvRvfR/uF9YuNmzQUL1SnI+NoQMQ7h47dkz5I8PNl+mIwMUiwMmXi0UwAdN/9dVXOgON8UIYN4wXYnbZEN/iCoLborJ121bt/v7mN78ReIsvvvii7Nq1S2e1Tdz33ntPb3EtKDh/TIIJ83dFeUXLvLTcpVoGSHYx+QN9cT9gwAB/WTGMCMQEAZKURpGk1mrBmONrHZfgsbw8j7UMRwlurSNUlSj3tttuC0qX7OzKntKlS9nGtQyt5mVN8NiGx6O+LDP2vzG3Y86utNXCbhMcV4DdJBs2bNCZYDzjaANMhgQjdp7g0KFDdZyyTZs2eojWF198EUxWjEMEkhIB8jEmZbP5V/qyyy6TnJwcHa8rXbq0bNq0SXAOtdlx4j+1feioUaPUyGKmm4S79hjxrXsQoGF0T1uyJkSACEQIAU6+RAjIRM2GxLiJ2jLUK5ERoGFM5NahbkSACMQFARrGuMDOQokAEUhkBDgrncitkyK6gX0Hs91Tp05N6i2E/oh4U6QpXVNNGkbXNGXyVqR169Zy9913y5IlS+Sbb75Jyoo4EfEmZWWotNAw8kcQdwTmzJkjK1asSFqjCADtiHjjDiwVCBsBGsawoWNCgwDYfLAAHKQSv/vd76Ru3bq6dvLZZ58V7K92Is0Fbdrw4cM1G2xTHPDgAC8Jrr8827VrJ7fccouWt3btWqU/GzJkiNKcvfPOO0Yt22tGRoZ0795dbrzxRt2GuHv3bkEaEGRgn/Z9fe5T3sj91nZHGGxQp/nTBSxCTkS8R44csdWBLxMfgXRLxdGJryY1DBeBBg0aKEkD+BujJSCgxZ5sGBsQQIB8Fszg//vf/2THjh1q/ECMu2fPHlm0aJFgLza6zKA+w7EGYA0HQ/j0adOVnAJ6+ssTdGmdO3fWMrDYHByPWMj+yiuvyKlTp/xWE/uwe/TooZRs//znP5Ue7fvvv9d0OJPm3NlzMnfOXKVQQxlgGoc41Q8MRi+//LISbYDBCDyYYDMCIQfqT0lOBOgxJme7haR1tIlxjTJg9QED+JkzZ6Rjx46CHTj+SHOxE8d4eG3btjXZFLra5QlSXRyJAEOGD8oD4w/eQ5xIc+G5wtgtX75cySoQF+OaEBDw4riHP//5zwK28oULF+rWx1tvvVUMTZydLiTiVfhc90XD6Lomta8QGLWjLRMmTPDOKqMLjaMSgiHN9aeXXZ6Ij73fMHDwTOGV4mPEiTS3cuXKGmXz5s0mqvdqEW/ovcnn6NGjgv3g5j0CnXTxZsIb1yBAw+iapnSuyOuvv+71epxjXXyIL62YOR/6Z/LbE1qAHWmuv5Lt8kT8hg0bCsYaQbh77bXXKk0azraBOJHm4vAvSOPGjdUb1IefvnDONQTn4aD7XLJUSbnyyitly5YtP8WQQrRppn7eQN64CgEu8HZVcyZeZXxJc0Gci0kaJ2nUqJFcffXVTsHe9yDORVca45TY8oiuL7rSGE/1J5gMWbNmjaDbnp+fL82aNVPj+stf/lLfIy3yARvRwwMfFhh1zJZTUg8BGsbUa/OI19gQ4Pp21w0ZbiDSXChj0uP0QByb4PvOLs++ffvq0QowbhhXhIeISR8YyxIlSmh6p6+xz4yVlStXSqtWrfTEQpx3g1llGFeQ5MITRb5YfgMPFLPSRj87XUw5dkS8JozX5ESAhKNxIJO1fioxwd3yqDwgl41VeUXLuVjS3KL5RerZmojxWN1mj7V8pxA2eL788ss9ZTPLFnofqXKZT2x+9xeLM8cYLQQp0UPgYklzo6UZltmYw8J8y8CYJZfZ+CKSmvc0jKnZ7jGrNRZOw9Bg8TTWGuKca5Dm2hmlmCnFgohAAARoGAMAxOCLQ+DQoUM6gcFJjIvDkaljiwANY2zxjnlpOJI0loJZ4rS0NJkxY0Ysi2VZRCCiCNAwRhTOxMts3759iacUNSICCY4Al+skeANRPSJABGKPAA1j7DFniTFAAGsT8/LyAq5rLKpKuOmK5hPOM7Yymi2U4aRHGpBY1KxZM9zkcU+HoR9s8wQLUjyFhjGe6LPsqCFgyG+tNYkhlRFuupAKcYj88MMPKwGGQ3BQr0eMGCHNmzd3jAtCYGyhTFTBPyYQkYBxKZ7CMcZ4os+yo4ZAuOS34aaLWkUinDG86JMnT+pOnwhn7arsaBhd1ZypUxnsqwaFGLbwYcse9k1jHzZozpzIb4EOthOCXgyEEuiyVapUSc+aAa+jUzqU1a9fP3nssce81GbgYJw3b56899574qRLoNYoSuALmjYjuAddHHgqQav29ttvy6xZszQ42PLQpQaBL7ZLvvrqq5KVlaXpcQwDiDQgX3/9tRw8eNCRpBfrT4HZxIkTlccSe9mxDvX558dZBtaZ+xLcmJMmTVIOzlGjRimp8IYNG3Qd69NPP606OdUPepl2DLY8pImk0DBGEk3mFRMEihUrJoMHD5aSJUsqFRgWjht6MBBFvPvuu0oQAbKI9LR0Lys4lAN7DrrL2OGyYMECL5O3v3TlypXT/dQZGT/vw0Z3dNWqVUoC7KSLPzBQh0GDBumYIIwy9mUb3kzQteWPyZfatWrrsid0L/v37y/bt2+XTz75xLHuvuVhrPIvf/mLGlX8wwCzOv6RQMCViX8KkKeeekrZhBC3oKBA/jHjH0qygX8SMKj4J4Lyx40bp2VDB4xjgscSBtJJMIQBJncQfsC4gcQY/7zwDtg71c/kB+OJugZbnkkXqSsNY6SQZD5eBMwfOF5kZ2eL05IhDLQ7hYFxHEcfOEmZMmX0jxaD9DBQ5hiBYMhvkScMApjAYShBRBFsOjt9nHSxi2ve+SPwhUfXoH4DwbENYEMH9yQmZuC9wVgEKq9JkybS2yLeBackjCKY08ePH68fcFiC3Hf27NlGFY3rRNILEg0IdBk5aqRkls1U7xX/XPwZRnBZwmPFBwLSDizyB09nZmamY/1AOgIJtTxNFMEvTr5EEExmJcr7+Nprr+kRBb5sNJHEBlyIY8eO1T98sPGAYRtHDwQ7k4kjFWAUIWDX8TUSoeoZri5m9hlG3QgWxkNgGCEwPvDU0BXFFkp4xsGU17JlSz1n54033lCjqJn5+TLetj+SXnTFcewDWIQwdAFv3Z+A07JOnTrSrHkzPTsHusNjhcH0Vz+TZ6jlmXSRutJjjBSSzMeLgDkKwPsiCjc4UyU3L1dyGuZIr169tBuKrpoxeP6KRFcuFDEGPiPjvDG4/fbbdXePySMcXfwR+BovGgbRrj6BysMEEjxMdNUxhrh161ajqnat4XH6SjAkvTibB4KxSXiXoGnzJ/D8unXrplFmzpypvJfwZHGUhb/64VgKSKjlaaIIftEwRhBMZhUbBHCw/QMPPKBjiSCoWLdunU5S4A+2qGCiAl1KjFWFIr7pMNYGwdgcJkJ69uzpzSoUXbyJrBtfAl/o5pvnzp07BMZq4MCBOoOM8cgWLVrItm3b1MgFqjvGCuFJg7Dj2eeelYEPDRScTQPZtWuXLgn64IMPBLofPnxYSXrhcYOkF4YL3d6iJL0YU61atarceeedOlkDzP0J/klBMAyAuoAgGCc7wmD6q59hbA+1PH+6hBNGwxgOakwTVwTOnDmtM6xjxozRBdw4GRBdUvzxGTHksiC/xR+nGfc07028olcT7psOxxvAkGEfODwZdPOQH+L60wVjgmYm2LcceKzwBDH506lTJ50owgwuPFHkidleTH6MHj1ayXSRFl1QjC/6Kw/xYLiRBzxFDBO8+OKLmsc999yj3XF0r+GJog4QM94Ikl6coAivDmJIetu0aaPP0AX5YhgCQyUwdv7qZ8aHzTgkxgxhGKGXv/ppYdaXXXkmLBbXYlYhIOSkuBQB/DFDYtG9jTWEGFPE5A48pFC7x+HoWqXKFZaHdcSWMs1OFxignJycC4rCeCEMFQTLhfCMSQk7Qf1QN3MCooljV54JC3QFyzlmjeEJ++aLPLFM6NjxY3Ls+/NeMrq2YEbvbU3mYILKV89g6hdIF7v6wUPGSgB4j77lBcor0uFkKo4Rm7bVcDHHGgze+MSjbJYZ+/aONOaWYfRYM9key4Cn1G/o/DSYhSaFCBABIlAUAYxJTpkyJa6eW1GdYvHMMcZYoMwyiECSIgDDiHHJVBMaRpe3OBZRY8yGQgSIQPAI0DAGj1VSxsSaMbNwOCkrQKWJQBwQ4BhjHEBnkUSACCQ2AvQYE7t9qJ0NAiAmaNasme6nxeLtSEjNmjWV4AB5YV0k9vVSUhcBGsbUbfukrTmIH7B4GdyCToYRhKwgYAi0dc2AUL9+fd1NU7ZsWRpGA0oKX9mVTuHGd3PVYTRDYapeuHCh7jyZPHmym2Fh3YJEgB5jkEAxmjMCYE3Bdi8YFWz9AnMMCFJBWYUZ8XDCsGc3kIC6649//KPUq1dPNm3apEw02DGBrjakKCErvEjspAD1P4ghsO0N6RcvXqzb3AKVx/DUQYAeY+q0ddRqunLlSkEX9PHHH1cvDVvIcGYH9i+HGxaMsjjfBOWAYxBsMti+hv3G2OcMAekD7vEB0zfGEUGWAIIEkK+CkRtd8Xbt2gVTHOOkEAL0GFOgsQ2BAqoaDeJY7LeFMQQhAT4gMgBTi9mHG25YoKYBsQMOTkJ5MILly5f3S8gKzxY0/sOGDbX2js+UZcuWKfEEDCSFCPgiQI/RFw0X36PraHgFo1FNMNjAc4OA8NSQnuI53DCk9ScTJkxQo4g46CLjSIBAAmN47Nh5wgYcgQDiV3woRMAXgcC/JN/YvE9KBF5//fWos+ugq4ouKZhgMOnRtWtXHcMDYOGGBQLbcPchXlHjBi+yKCEr4vmmwbIcjElyZxCQofgiQI/RFw3eh4UAJjvQXQY5KWjOsEQGXekGDRroREg4YUYRELRixhgEqaGIIWTF4Us4vAnrHoMV0G+BaxAGnZKaCNAwpma7R7TWOF4TBxzl5+fruOKTTz6pXH8wiDh2NJwwcAZCcB4Jjhk154TgHQhTIb5DA3jn6w2C+ACcgyBkxSQNJl4QjnjGu0T6oukQB11yELfivBVKaiJQzKo2B1hc3Pbw4LBXesaMGUlZy7T0NKlVs5aeEwJC11DEiZA1lDwYNzUR4BhjarZ70tQaJ9OB1j8cwTijOXsknPRMk7oIsCudum3PmhMBIuCAAA2jAzB8TQSIQOoiwK60y9seRLXkY3R5I7N6EUeAhjHikCZWhiSqTaz2oDbJgQC70snRTtSSCBCBGCJAwxhDsFlUdBDAkqSmTZtGJ3PmmpII0DCmZLO7p9LYpQLuxVtvvdU9lWJN4o4Axxjj3gRU4GIQwN7s++67T3faXEw+TEsEfBGgYfRFg/dhIRAPotrc3Fxp2bKlV1/sp54/f74+N2rUSKAT9jpjyx8WeQ8dOtQblzdEIBAC7EoHQojhAREIl4zWX7pAhYKxG7Rh+GAfNHgmIWDKGTx4sLJ6g5Zs2rRphSjQAuXLcCIABLhX2uW/A0xMgL4f1GOQaBDVIt86deooSS3G/AxRreFkDDcM+QYjs2fPlkWLFmkdYRhnzZol6enp+rxmzRo5cuRIMNkwDhHwIkCP0QuFO2/efPNNPc/EjUS1di0G5pyxY8fqkQXDhg1THkocZwCDTSECwSLAMcZgkUrieDCO0ZZwyWj9pQtX540bN0puXq7kNMyRXr16CY52wDjj6tWrw82S6VIMAXqMKdbg0ahuIhHVVqtWTcaMGSMtmreQw4cPy7p167TK6FpTiECwCNAwBosU4zkiEGuiWl9FMKaIEwoNSe2ZM6clKytLjSPIarGUB6cVYqyRQgRCQQBEtfwQg4T8DVhEtR7r/GiPxeJtq1+NGjU81iFcni5duhQKt8YUPdWrV/fgyt83/75D/Q1wjDGUfyGMG3ME7IhqcWTB8OHDpaCgQJo0aSInT56U9evXF9INC79JUlsIEj6EgAANYwhgMWpiIACjt3fvXj1HesWKFbJ06VLZs2dPYihHLVyBANcxuqIZWQkiQAQiiQAnXyKJJvMiAkTAFQjQMLqiGVkJIkAEIokADWMk0WReRIAIuAIBGkZXNCMrQQSIQCQRoGGMJJrMiwgQAVcgQMPoimZkJYgAEYgkAjSMkUSTeREBIuAKBGgYXdGMrAQRIAKRRICGMZJoMi8iQARcgcD/A6MLozwgEyqOAAAAAElFTkSuQmCC;" vertex="1" parent="1">
          <mxGeometry x="680" y="361" width="326" height="147" as="geometry" />
        </mxCell>
        <mxCell id="Pc4GYu4Is_tvCK-LLafG-9" value="&lt;font style=&quot;font-size: 15px;&quot;&gt;正常包结构&lt;/font&gt;" style="text;html=1;strokeColor=none;fillColor=none;align=center;verticalAlign=middle;whiteSpace=wrap;rounded=0;fontSize=15;fontColor=#333333;" vertex="1" parent="1">
          <mxGeometry x="740" y="101" width="200" height="26" as="geometry" />
        </mxCell>
        <mxCell id="Pc4GYu4Is_tvCK-LLafG-10" value="&lt;font style=&quot;font-size: 15px;&quot;&gt;灰度包结构&lt;/font&gt;" style="text;html=1;strokeColor=none;fillColor=none;align=center;verticalAlign=middle;whiteSpace=wrap;rounded=0;fontSize=15;fontColor=#333333;" vertex="1" parent="1">
          <mxGeometry x="743" y="331" width="200" height="26" as="geometry" />
        </mxCell>
      </root>
    </mxGraphModel>
  </diagram>
</mxfile>
